Tilt-Monument-Separated.ufo
<glyph name="quotedbl" format="2">
  <advance width="518"/>
  <unicode hex="0022"/>
  <outline>
    <contour>
      <point x="148.0" y="444.0" type="move" name="IZGTWQSO"/>
      <point x="148.0" y="618.0" type="line" name="XQVKJWQA"/>
    </contour>
    <contour>
      <point x="199.0" y="398.0" type="move" name="DVBPVJXE"/>
      <point x="148.0" y="444.0" type="line" name="QXANVYFH"/>
      <point x="98.0" y="398.0" type="line" name="ITMXAXLM"/>
    </contour>
    <contour>
      <point x="64.0" y="680.0" type="move" name="QSGAVIMM"/>
      <point x="148.0" y="618.0" type="line" name="SHGCJXUM"/>
      <point x="233.0" y="680.0" type="line" name="QZAZHGDX"/>
    </contour>
    <contour>
      <point x="369.0" y="444.0" type="move" name="EKEJDAUC"/>
      <point x="369.0" y="618.0" type="line" name="FIBXZVCA"/>
    </contour>
    <contour>
      <point x="420.0" y="398.0" type="move" name="TJGZVQJV"/>
      <point x="369.0" y="444.0" type="line" name="APOOYFUC"/>
      <point x="319.0" y="398.0" type="line" name="LTVSUZYU"/>
    </contour>
    <contour>
      <point x="285.0" y="680.0" type="move" name="EKHMTXWB"/>
      <point x="369.0" y="618.0" type="line" name="RLFCOKXL"/>
      <point x="454.0" y="680.0" type="line" name="TGNRZLAR"/>
    </contour>
  </outline>
</glyph>
<glyph name="dollar" format="2">
  <advance width="540"/>
  <unicode hex="0024"/>
  <outline>
    <contour>
      <point x="414" y="578" type="move" smooth="yes" name="VBYTACFI"/>
      <point x="375" y="591" name="TPAIVTBL"/>
      <point x="335" y="598" name="EWTOXQXZ"/>
      <point x="285" y="598" type="curve" smooth="yes" name="AJTTCQEV"/>
      <point x="196" y="598" name="YRMPUUOY"/>
      <point x="126" y="555" name="QCMUVOCF"/>
      <point x="126" y="480" type="curve" smooth="yes" name="MJKEUMYP"/>
      <point x="126" y="407"/>
      <point x="202" y="373"/>
      <point x="278" y="340" type="curve" smooth="yes"/>
      <point x="354" y="307"/>
      <point x="430" y="274"/>
      <point x="430" y="202" type="curve" smooth="yes" name="CTMFAIGV"/>
      <point x="430" y="122" name="JBPXHLOL"/>
      <point x="360" y="80" name="XGXSCXPJ"/>
      <point x="252" y="80" type="curve" smooth="yes" name="REIXWDSO"/>
      <point x="208" y="80" name="PXEOTDVG"/>
      <point x="161" y="87" name="PRVGJEEL"/>
      <point x="116" y="102" type="curve" smooth="yes" name="NECIRFSN"/>
    </contour>
    <contour>
      <point x="285" y="598" type="move" name="UKMSLBXV"/>
      <point x="292.0" y="708.0" type="line" name="IYODPCTF"/>
    </contour>
    <contour>
      <point x="244.0" y="-38.0" type="move" name="TWHGEVGS"/>
      <point x="252" y="80" type="line" name="BBLAMYVY"/>
    </contour>
    <contour>
      <point x="476.0" y="634.0" type="move" name="XYGWLLJZ"/>
      <point x="414.0" y="578.0" type="line" name="KMXAMPOA"/>
      <point x="476.0" y="470.0" type="line" name="NRFSNWVX"/>
    </contour>
    <contour>
      <point x="54.0" y="45.0" type="move" name="SFQYRYIF"/>
      <point x="116.0" y="102.0" type="line" name="CJMHXZGC"/>
      <point x="54.0" y="211.0" type="line" name="NKUKGJGC"/>
    </contour>
    <contour>
      <point x="232.0" y="770.0" type="move" name="FCLRCFFV"/>
      <point x="292.0" y="708.0" type="line" name="BGHSJBWT"/>
      <point x="361.0" y="770.0" type="line" name="WTGFQFIL"/>
    </contour>
    <contour>
      <point x="304.0" y="-100.0" type="move" name="ZOVJRSXG"/>
      <point x="244.0" y="-38.0" type="line" name="AQYKFLRN"/>
      <point x="175.0" y="-100.0" type="line" name="ZCKQMTVC"/>
    </contour>
    <contour>
      <point x="226.0" y="653.0" type="move" name="NWSRMZDD"/>
      <point x="285.0" y="598.0" type="line" name="ZJBCMVKF"/>
      <point x="352.0" y="658.0" type="line" name="ITAWIOHQ"/>
    </contour>
    <contour>
      <point x="310.0" y="21.0" type="move" name="EJAGNTCM"/>
      <point x="252.0" y="80.0" type="line" name="VOGTWQNL"/>
      <point x="185.0" y="20.0" type="line" name="BODNBDBT"/>
    </contour>
  </outline>
</glyph>
<glyph name="quotesingle" format="2">
  <advance width="297"/>
  <unicode hex="0027"/>
  <outline>
    <contour>
      <point x="148.0" y="444.0" type="move" name="FUOSAGSS"/>
      <point x="148.0" y="618.0" type="line" name="TSTALGLO"/>
    </contour>
    <contour>
      <point x="199.0" y="398.0" type="move" name="JRLMZRMB"/>
      <point x="148.0" y="444.0" type="line" name="VWUMAPUP"/>
      <point x="98.0" y="398.0" type="line" name="XJBUXPFQ"/>
    </contour>
    <contour>
      <point x="64.0" y="680.0" type="move" name="SFLOLYUF"/>
      <point x="148.0" y="618.0" type="line" name="WZGBHWZC"/>
      <point x="233.0" y="680.0" type="line" name="ECUUNSVW"/>
    </contour>
  </outline>
</glyph>
<glyph name="parenleft" format="2">
  <advance width="481"/>
  <unicode hex="0028"/>
  <outline>
    <contour>
      <point x="369" y="744" type="move" smooth="yes" name="CJKFKYQK"/>
      <point x="230" y="702" name="LGJVGCMU"/>
      <point x="119" y="570" name="AIHPEUOX"/>
      <point x="119" y="340" type="curve" smooth="yes" name="ACANSOFH"/>
      <point x="119" y="110" name="GJCSDMUQ"/>
      <point x="230" y="-22" name="CCDTOGJG"/>
      <point x="369" y="-64" type="curve" smooth="yes" name="PJDNVTMS"/>
    </contour>
    <contour>
      <point x="431.0" y="833.0" type="move" name="ELHHXMVL"/>
      <point x="369.0" y="744.0" type="line" name="YRYWHOHD"/>
      <point x="431.0" y="678.0" type="line" name="HWRCRVUA"/>
    </contour>
    <contour>
      <point x="431.0" y="2.0" type="move" name="DJTNZZRJ"/>
      <point x="369.0" y="-64.0" type="line" name="YWZSWIHJ"/>
      <point x="431.0" y="-153.0" type="line" name="HHSKCGOP"/>
    </contour>
  </outline>
</glyph>
<glyph name="parenright" format="2">
  <advance width="481"/>
  <unicode hex="0029"/>
  <outline>
    <contour>
      <point x="112" y="-63" type="move" smooth="yes" name="CJKFKYQK"/>
      <point x="251" y="-21" name="LGJVGCMU"/>
      <point x="362" y="111" name="AIHPEUOX"/>
      <point x="362" y="341" type="curve" smooth="yes" name="ACANSOFH"/>
      <point x="362" y="571" name="GJCSDMUQ"/>
      <point x="251" y="703" name="CCDTOGJG"/>
      <point x="112" y="745" type="curve" smooth="yes" name="PJDNVTMS"/>
    </contour>
    <contour>
      <point x="50.0" y="-152.0" type="move" name="ELHHXMVL"/>
      <point x="112.0" y="-63.0" type="line" name="YRYWHOHD"/>
      <point x="50.0" y="3.0" type="line" name="HWRCRVUA"/>
    </contour>
    <contour>
      <point x="50.0" y="679.0" type="move" name="DJTNZZRJ"/>
      <point x="112.0" y="745.0" type="line" name="YWZSWIHJ"/>
      <point x="50.0" y="834.0" type="line" name="HHSKCGOP"/>
    </contour>
  </outline>
</glyph>
<glyph name="hyphen" format="2">
  <advance width="340"/>
  <unicode hex="002D"/>
  <outline>
    <contour>
      <point x="243.0" y="335.0" type="move" name="RTCEFKAU"/>
      <point x="97.0" y="302.0" type="line" name="ZSFYJKKA"/>
    </contour>
    <contour>
      <point x="35.0" y="226.0" type="move" name="ERXSPNJE"/>
      <point x="97.0" y="302.0" type="line" name="NGYHDOZU"/>
      <point x="35.0" y="351.0" type="line" name="PFLILDAC"/>
    </contour>
    <contour>
      <point x="305.0" y="411.0" type="move" name="ARPLPCEY"/>
      <point x="243.0" y="335.0" type="line" name="LVQDJYOE"/>
      <point x="305.0" y="286.0" type="line" name="EJGQMHQS"/>
    </contour>
  </outline>
</glyph>
<glyph name="zero" format="2">
  <advance width="646"/>
  <unicode hex="0030"/>
  <outline>
    <contour>
      <point x="323" y="634" type="curve" smooth="yes" name="YSYMPFLY"/>
      <point x="193" y="634" name="SQOGDJCA"/>
      <point x="112" y="514" name="WRXNSMAD"/>
      <point x="112" y="341" type="curve" smooth="yes" name="NXWVDXWP"/>
      <point x="112" y="168" name="XHHWMLFW"/>
      <point x="193" y="46" name="CBDFDWHV"/>
      <point x="323" y="46" type="curve" smooth="yes" name="YMGNFPWL"/>
      <point x="453" y="46" name="DWBIVIDI"/>
      <point x="534" y="166" name="FVMWCOJJ"/>
      <point x="534" y="339" type="curve" smooth="yes" name="WMGCECUC"/>
      <point x="534" y="512" name="DTENAZOV"/>
      <point x="453" y="634" name="LXHEUTHF"/>
    </contour>
  </outline>
</glyph>
<glyph name="one" format="2">
  <advance width="392"/>
  <unicode hex="0031"/>
  <outline>
    <contour>
      <point x="322.0" y="693.0" type="move" name="VQDOCIWB"/>
      <point x="240.0" y="613.0" type="line" name="TLLMWLDB"/>
      <point x="159.0" y="532.0" type="line" name="PSBBLZWZ"/>
    </contour>
    <contour>
      <point x="332.0" y="0.0" type="move" name="JRLMZRMB"/>
      <point x="232.0" y="62.0" type="line" name="VWUMAPUP"/>
      <point x="125.0" y="0.0" type="line" name="XJBUXPFQ"/>
    </contour>
    <contour>
      <point x="90" y="574" type="move" smooth="yes" name="EBLBGSDF"/>
      <point x="134" y="588" name="VBRMYQQR"/>
      <point x="194" y="604" name="GVNVMOXW"/>
      <point x="240" y="613" type="curve" name="EQOGMJQQ"/>
      <point x="236" y="563" name="QLMWTUAJ"/>
      <point x="234" y="506" name="RRCZHJTB"/>
      <point x="234" y="349" type="curve" smooth="yes" name="ZGMZGDGZ"/>
      <point x="232" y="62" type="line" name="UFCADVER"/>
    </contour>
    <contour>
      <point x="28.0" y="468.0" type="move" name="RYZKFXAT"/>
      <point x="90.0" y="574.0" type="line" name="ABLRZYAN"/>
      <point x="28.0" y="630.0" type="line" name="GQPRALUS"/>
    </contour>
  </outline>
</glyph>
<glyph name="three" format="2">
  <advance width="523"/>
  <unicode hex="0033"/>
  <outline>
    <contour>
      <point x="129" y="608" type="move" name="BUCKYNQF"/>
      <point x="193" y="614" name="IEDFFWTB"/>
      <point x="270" y="617" name="QLLDDDJU"/>
      <point x="380" y="617" type="curve" name="VQBJZPZE"/>
      <point x="206" y="366" type="line" name="PPBHXDKD"/>
      <point x="349" y="357" name="VIHMQAZR"/>
      <point x="418" y="294" name="SSFAUMJM"/>
      <point x="418" y="204" type="curve" smooth="yes" name="LVFWMTJP"/>
      <point x="418" y="107" name="IZYCKUEY"/>
      <point x="335" y="48" name="BFGHQMYT"/>
      <point x="221" y="48" type="curve" smooth="yes" name="JWFQFDCG"/>
      <point x="187" y="48" name="OHBAHWOA"/>
      <point x="153" y="55" name="WXAYRTLJ"/>
      <point x="120" y="67" type="curve" smooth="yes" name="WCTXHNDJ"/>
    </contour>
    <contour>
      <point x="67.0" y="524.0" type="move" name="GWNMZKEQ"/>
      <point x="129.0" y="608.0" type="line" name="UUZKONNZ"/>
      <point x="67.0" y="680.0" type="line" name="SZFPBQNR"/>
    </contour>
    <contour>
      <point x="58.0" y="14.0" type="move" name="NRLGLPAI"/>
      <point x="120.0" y="67.0" type="line" name="DSXDBTPB"/>
      <point x="58.0" y="177.0" type="line" name="CASTZYJZ"/>
    </contour>
    <contour>
      <point x="263.0" y="553.0" type="move" name="TOVJRIMR"/>
      <point x="380.0" y="617.0" type="line" name="SCAVZQWZ"/>
      <point x="498.0" y="680.0" type="line" name="QZWMEQHY"/>
    </contour>
    <contour>
      <point x="94.0" y="312.0" type="move" name="HMPJKLJJ"/>
      <point x="206.0" y="366.0" type="line" name="TWBTKUNM"/>
      <point x="313.0" y="414.0" type="line" name="KPRIXVIT"/>
    </contour>
  </outline>
</glyph>
<glyph name="four" format="2">
  <advance width="579"/>
  <unicode hex="0034"/>
  <outline>
    <contour>
      <point x="486.0" y="0.0" type="move" name="JRLMZRMB"/>
      <point x="389.0" y="62.0" type="line" name="VWUMAPUP"/>
      <point x="292.0" y="0.0" type="line" name="XJBUXPFQ"/>
    </contour>
    <contour>
      <point x="492.0" y="212.0" type="move" name="QIOMSUFF"/>
      <point x="95" y="212" type="line" name="RGIYXXVR"/>
      <point x="306" y="618" type="line" name="SHFCORXJ"/>
      <point x="389" y="618" type="line" name="OOCXLPVA"/>
      <point x="389" y="62" type="line" name="VSVEQYLG"/>
    </contour>
    <contour>
      <point x="273.0" y="680.0" type="move" name="VAAVNZDS"/>
      <point x="306.0" y="618.0" type="line" name="GNCUJRFY"/>
      <point x="317.0" y="509.0" type="line" name="VSSJMGMR"/>
      <point x="389.0" y="618.0" type="line" name="ZADHSTAR"/>
      <point x="486.0" y="680.0" type="line" name="TUBDPHXP"/>
    </contour>
    <contour>
      <point x="-5.0" y="155.0" type="move" name="SSRONAHD"/>
      <point x="95.0" y="212.0" type="line" name="IKHRTAIB"/>
      <point x="195.0" y="269.0" type="line" name="RJBDGNDW"/>
    </contour>
    <contour>
      <point x="554.0" y="291.0" type="move" name="UBWSCXEJ"/>
      <point x="492.0" y="212.0" type="line" name="OGPDTMUS"/>
      <point x="554.0" y="134.0" type="line" name="JMWBMAFS"/>
    </contour>
    <contour>
      <point x="319.0" y="269.0" type="move" name="SWGJXBTY"/>
      <point x="389.0" y="212.0" type="line" name="YXSFFQNX"/>
      <point x="462.0" y="153.0" type="line" name="RLJWYXMQ"/>
    </contour>
    <contour>
      <point x="316.0" y="155.0" type="move" name="XFBKTQZH"/>
      <point x="389.0" y="212.0" type="line" name="BWDROCBT"/>
      <point x="459.0" y="271.0" type="line" name="HCLWPYSV"/>
    </contour>
  </outline>
</glyph>
<glyph name="eight" format="2">
  <advance width="568"/>
  <unicode hex="0038"/>
  <outline>
    <contour>
      <point x="285" y="356" type="curve" smooth="yes" name="BWOBEFYK"/>
      <point x="196" y="356" name="ZXMDJFWV"/>
      <point x="129" y="407" name="FOWLEBTQ"/>
      <point x="129" y="498" type="curve" smooth="yes" name="AXWVWTWP"/>
      <point x="129" y="578" name="XDSFKIQD"/>
      <point x="195" y="636" name="TDMGFFIS"/>
      <point x="285" y="636" type="curve" smooth="yes" name="MQVSWYAN"/>
      <point x="374" y="636" name="EXTNEQFS"/>
      <point x="439" y="578" name="KBGSIMNZ"/>
      <point x="439" y="498" type="curve" smooth="yes" name="PMSJRNYV"/>
      <point x="439" y="407" name="ROAHMESG"/>
      <point x="374" y="356" name="DHBABKQC"/>
    </contour>
    <contour>
      <point x="285" y="44" type="curve" smooth="yes" name="IUZWDGCH"/>
      <point x="384" y="44" name="SHFCJQZN"/>
      <point x="457" y="107" name="FIKSEJUQ"/>
      <point x="457" y="196" type="curve" smooth="yes" name="QMZBRZUK"/>
      <point x="457" y="298" name="TOKAGHNL"/>
      <point x="382" y="356" name="VGOBTXFI"/>
      <point x="285" y="356" type="curve" smooth="yes" name="JNVCWQME"/>
      <point x="186" y="356" name="IMEHISYK"/>
      <point x="111" y="298" name="WOLSCWDK"/>
      <point x="111" y="196" type="curve" smooth="yes" name="KERINFLN"/>
      <point x="111" y="107" name="DGUSJGRT"/>
      <point x="184" y="44" name="KCRQZXJM"/>
    </contour>
    <contour>
      <point x="130.0" y="358.0" type="move" name="SCNFFGJN"/>
      <point x="285.0" y="356.0" type="line" name="YTQZVMGX"/>
      <point x="439.0" y="358.0" type="line" name="WMKLGMXH"/>
    </contour>
  </outline>
</glyph>
<glyph name="equal" format="2">
  <advance width="490"/>
  <unicode hex="003D"/>
  <outline>
    <contour>
      <point x="388.0" y="188.0" type="move" name="NHUIFZGC"/>
      <point x="102.0" y="188.0" type="line" name="FHKONJBF"/>
    </contour>
    <contour>
      <point x="40.0" y="125.0" type="move" name="ABHQBCWC"/>
      <point x="102.0" y="188.0" type="line" name="FNLSIUGI"/>
      <point x="40.0" y="252.0" type="line" name="DRJJTAUP"/>
    </contour>
    <contour>
      <point x="450.0" y="252.0" type="move" name="IYGLUXJP"/>
      <point x="388.0" y="188.0" type="line" name="SBTAPLVF"/>
      <point x="450.0" y="125.0" type="line" name="FHTTXSJP"/>
    </contour>
    <contour>
      <point x="388.0" y="428.0" type="move" name="SAFHUSSR"/>
      <point x="102.0" y="428.0" type="line" name="RFIZOCFH"/>
    </contour>
    <contour>
      <point x="40.0" y="365.0" type="move" name="CCQEEEHQ"/>
      <point x="102.0" y="428.0" type="line" name="BGIWGUVH"/>
      <point x="40.0" y="492.0" type="line" name="XKWRAQLF"/>
    </contour>
    <contour>
      <point x="450.0" y="492.0" type="move" name="IEQBPFZH"/>
      <point x="388.0" y="428.0" type="line" name="QICFKYLA"/>
      <point x="450.0" y="365.0" type="line" name="FNNHCQUS"/>
    </contour>
  </outline>
</glyph>
<glyph name="question" format="2">
  <advance width="523"/>
  <unicode hex="003F"/>
  <outline>
    <contour>
      <point x="152" y="161" type="move" name="KFGIGMOD"/>
      <point x="232" y="81" type="line" name="PHPTNCMS"/>
      <point x="313" y="0" type="line" name="JYLHONKL"/>
    </contour>
    <contour>
      <point x="152" y="0" type="move" name="GMKLNRTI"/>
      <point x="232" y="81" type="line" name="BGIAKFXI"/>
      <point x="313" y="161" type="line" name="DUAAOXAS"/>
    </contour>
    <contour>
      <point x="286.0" y="257.0" type="move" name="JRLMZRMB"/>
      <point x="240.0" y="303.0" type="line" name="VWUMAPUP"/>
      <point x="179.0" y="257.0" type="line" name="XJBUXPFQ"/>
    </contour>
    <contour>
      <point x="107" y="606" type="move" smooth="yes" name="CZGRHAEP"/>
      <point x="148" y="620" name="OWEGBLNJ"/>
      <point x="190" y="628" name="DUKJKRKS"/>
      <point x="230" y="628" type="curve" smooth="yes" name="DBTMXWNH"/>
      <point x="340" y="628" name="MKGMAZJP"/>
      <point x="412" y="584" name="SKGHRGHM"/>
      <point x="412" y="506" type="curve" smooth="yes" name="GIGXNIGK"/>
      <point x="412" y="402" name="XPKIAYVY"/>
      <point x="274" y="382" name="GYNLDTND"/>
      <point x="240" y="303" type="curve" smooth="yes" name="PRYMSVEV"/>
    </contour>
    <contour>
      <point x="45.0" y="494.0" type="move" name="DMOCMXSX"/>
      <point x="107.0" y="606.0" type="line" name="BUWWFJIJ"/>
      <point x="45.0" y="665.0" type="line" name="IIYOJRYX"/>
    </contour>
  </outline>
</glyph>
<glyph name="at" format="2">
  <advance width="896"/>
  <unicode hex="0040"/>
  <outline>
    <contour>
      <point x="594" y="457" type="move" name="HKUUAAIJ"/>
      <point x="594" y="267" type="line" smooth="yes" name="HKGOHYYW"/>
      <point x="594" y="202" name="FXRHFMWF"/>
      <point x="630" y="168" name="DMRGSPFM"/>
      <point x="676" y="168" type="curve" smooth="yes" name="PIXTAZVZ"/>
      <point x="746" y="168" name="MTEAZJMO"/>
      <point x="818" y="240" name="DAWMSAES"/>
      <point x="818" y="367" type="curve" smooth="yes" name="EVUWETIL"/>
      <point x="818" y="557" name="EOTNYWXF"/>
      <point x="676" y="687" name="CXBVQLDP"/>
      <point x="470" y="687" type="curve" smooth="yes" name="LFOANICR"/>
      <point x="257" y="687" name="OJZDWMNP"/>
      <point x="102" y="535" name="RSBYXIFL"/>
      <point x="102" y="318" type="curve" smooth="yes" name="GMRPOZYG"/>
      <point x="102" y="56" name="LRKJEZTQ"/>
      <point x="326" y="-88" name="YRMSXRST"/>
      <point x="590" y="-15" type="curve" smooth="yes" name="BLHPXJAW"/>
    </contour>
    <contour>
      <point x="455" y="164.0" type="curve" smooth="yes" name="IVILUIHW"/>
      <point x="372" y="164.0" name="GSUNJCLF"/>
      <point x="320.0" y="224" name="EAWMQLFR"/>
      <point x="320.0" y="320" type="curve" smooth="yes" name="BENJJWFW"/>
      <point x="320.0" y="415" name="PCNAJHRX"/>
      <point x="372" y="474" name="AHDWUYUR"/>
      <point x="455" y="474" type="curve" smooth="yes" name="WCWLCVRW"/>
      <point x="540" y="474" name="QYBRLBJU"/>
      <point x="594" y="414" name="DCTRFUOV"/>
      <point x="594" y="320" type="curve" smooth="yes" name="WPNHWMHV"/>
      <point x="594" y="226" name="JVCGURZC"/>
      <point x="540" y="164.0" name="GLCPYNVG"/>
    </contour>
    <contour>
      <point x="526.0" y="519.0" type="move" name="NUKKCNGE"/>
      <point x="594.0" y="457.0" type="line" name="POROMZGU"/>
      <point x="661.0" y="519.0" type="line" name="FQNYHCGX"/>
    </contour>
    <contour>
      <point x="594" y="320" type="move" smooth="yes" name="JOYFXRXU"/>
      <point x="594" y="398" name="PRWGWWQX"/>
      <point x="566" y="456" name="MDWQXOWY"/>
      <point x="526" y="490" type="curve" name="JIFXCUHY"/>
    </contour>
    <contour>
      <point x="551" y="175" type="move" name="SIOMNHWA"/>
      <point x="577" y="210" name="MXWANBMT"/>
      <point x="594" y="258" name="AHKVSEGF"/>
      <point x="594" y="319" type="curve" name="VAMPXZGK"/>
    </contour>
    <contour>
      <point x="652.0" y="68.0" type="move" name="IQVNJISR"/>
      <point x="590.0" y="-15.0" type="line" name="MBLKTCQA"/>
      <point x="652.0" y="-57.0" type="line" name="LMCNVRTT"/>
    </contour>
  </outline>
</glyph>
<glyph name="B" format="2">
  <advance width="593"/>
  <unicode hex="0042"/>
  <outline>
    <contour>
      <point x="294" y="349" type="move" name="SJEWEYNH"/>
      <point x="391" y="349" name="VQACZOFM"/>
      <point x="460.0" y="401" name="OKDYHSJL"/>
      <point x="460" y="488" type="curve" smooth="yes" name="HXFLRMIO"/>
      <point x="460" y="566" name="DMEFXKPF"/>
      <point x="400" y="618" name="NQLGQSQL"/>
      <point x="301" y="618" type="curve" smooth="yes" name="JIKQVFVE"/>
      <point x="156.0" y="618.0" type="line" name="XGLJNHJF"/>
      <point x="156.0" y="62.0" type="line" name="AQFNPWKD"/>
      <point x="318" y="62" type="line" smooth="yes" name="MPUADQOY"/>
      <point x="414" y="62" name="LBPXBWSP"/>
      <point x="480" y="116" name="FOFEUZKA"/>
      <point x="480" y="202" type="curve" smooth="yes" name="ZPAAZOFD"/>
      <point x="480.0" y="294" name="WNSPKAUQ"/>
      <point x="409" y="349" name="FSYWEYKZ"/>
      <point x="298" y="349" type="curve" name="ABQFQLIB"/>
    </contour>
    <contour>
      <point x="231.0" y="123.0" type="move" name="MJVZATKE"/>
      <point x="156.0" y="62.0" type="line" name="ZWRNCKHQ"/>
      <point x="57" y="0" type="line" name="EFSHOVMG"/>
    </contour>
    <contour>
      <point x="57.0" y="680.0" type="move" name="PGAOAJGW"/>
      <point x="156.0" y="618.0" type="line" name="ZPXQPUIZ"/>
      <point x="231.0" y="557.0" type="line" name="MKNQWECE"/>
    </contour>
    <contour>
      <point x="227.0" y="406.0" type="move" name="DAPSLMYS"/>
      <point x="156.0" y="349.0" type="line" name="EUWKCPFU"/>
      <point x="227.0" y="289.0" type="line" name="KKDJGKKF"/>
    </contour>
    <contour>
      <point x="156" y="349" type="move" name="OILAABOJ"/>
      <point x="298.0" y="349.0" type="line" name="URLYNVOZ"/>
      <point x="456" y="353" type="line" name="ZIWAITVW"/>
    </contour>
  </outline>
</glyph>
<glyph name="D" format="2">
  <advance width="691"/>
  <unicode hex="0044"/>
  <outline>
    <contour>
      <point x="231.0" y="125.0" type="move" name="MJVZATKE"/>
      <point x="156.0" y="62.0" type="line" name="ZWRNCKHQ"/>
      <point x="57" y="0" type="line" name="EFSHOVMG"/>
    </contour>
    <contour>
      <point x="57.0" y="680.0" type="move" name="PGAOAJGW"/>
      <point x="156.0" y="618.0" type="line" name="ZPXQPUIZ"/>
      <point x="231.0" y="555.0" type="line" name="MKNQWECE"/>
    </contour>
    <contour>
      <point x="156.0" y="62.0" type="line" name="AQFNPWKD"/>
      <point x="156.0" y="618.0" type="line" name="XGLJNHJF"/>
      <point x="306" y="618" type="line" smooth="yes" name="VAASNHYO"/>
      <point x="467" y="618" name="TNRFHSZN"/>
      <point x="578" y="509" name="ZWJKCABV"/>
      <point x="578" y="341" type="curve" smooth="yes" name="VGDCTNWC"/>
      <point x="578" y="172" name="ALDKOYCL"/>
      <point x="467.0" y="62" name="XXAOFSRB"/>
      <point x="306" y="62" type="curve" smooth="yes" name="KIJSYAEP"/>
    </contour>
  </outline>
</glyph>
<glyph name="E" format="2">
  <advance width="549"/>
  <unicode hex="0045"/>
  <anchor x="275" y="750" name="center"/>
  <outline>
    <contour>
      <point x="414" y="611" type="move" smooth="yes" name="PSTPYLRZ"/>
      <point x="343" y="616" name="SKEEOTAO"/>
      <point x="225" y="620" name="TDJFVIIW"/>
      <point x="156" y="618" type="curve" name="DARGRHBN"/>
      <point x="156" y="62" type="line" name="BZBSRBAL"/>
      <point x="227" y="60" name="XASQUJDO"/>
      <point x="341" y="63" name="HUEQRWOZ"/>
      <point x="412" y="69" type="curve" smooth="yes" name="WQTISNDK"/>
    </contour>
    <contour>
      <point x="387.0" y="350.0" type="move" name="GRLQYXQK"/>
      <point x="156" y="350" type="line" name="GHHEYZBI"/>
    </contour>
    <contour>
      <point x="231.0" y="125.0" type="move" name="MJVZATKE"/>
      <point x="156.0" y="62.0" type="line" name="ZWRNCKHQ"/>
      <point x="57" y="0" type="line" name="EFSHOVMG"/>
    </contour>
    <contour>
      <point x="57.0" y="680.0" type="move" name="GRZQCAGM"/>
      <point x="156.0" y="618.0" type="line" name="LXMSTDXV"/>
      <point x="231.0" y="555.0" type="line" name="MENRSPSU"/>
    </contour>
    <contour>
      <point x="476.0" y="680.0" type="move" name="IIYOJRYX"/>
      <point x="414.0" y="611.0" type="line" name="BUWWFJIJ"/>
      <point x="476.0" y="524.0" type="line" name="DMOCMXSX"/>
    </contour>
    <contour>
      <point x="494.0" y="166.0" type="move" name="NFCLXEKZ"/>
      <point x="412.0" y="69.0" type="line" name="DGWJLFZR"/>
      <point x="474.0" y="0.0" type="line" name="RDJQSJBO"/>
    </contour>
    <contour>
      <point x="449.0" y="432.0" type="move" name="UBWSCXEJ"/>
      <point x="387.0" y="350.0" type="line" name="OGPDTMUS"/>
      <point x="449.0" y="269.0" type="line" name="JMWBMAFS"/>
    </contour>
    <contour>
      <point x="227.0" y="410.0" type="move" name="HAWFMGNR"/>
      <point x="156.0" y="350.0" type="line" name="ROFWTZTV"/>
      <point x="227.0" y="290.0" type="line" name="GOKVVXDN"/>
    </contour>
  </outline>
</glyph>
<glyph name="G" format="2">
  <advance width="670"/>
  <unicode hex="0047"/>
  <outline>
    <contour>
      <point x="592.0" y="652.0" type="move" name="ZVSPBBMH"/>
      <point x="530.0" y="599.0" type="line" name="PJYICBXU"/>
      <point x="592.0" y="484.0" type="line" name="JTRIQKLW"/>
    </contour>
    <contour>
      <point x="442.0" y="350.0" type="move" name="EFSHOVMG"/>
      <point x="536.0" y="288.0" type="line" name="ZWRNCKHQ"/>
      <point x="620.0" y="350.0" type="line" name="MJVZATKE"/>
    </contour>
    <contour>
      <point x="530" y="599" type="move" smooth="yes" name="NUEXWVON"/>
      <point x="485" y="618" name="ZWXFJNRG"/>
      <point x="431" y="628" name="NVYKQXKG"/>
      <point x="386" y="628" type="curve" smooth="yes" name="METJVKML"/>
      <point x="220" y="628" name="GNXJIUSZ"/>
      <point x="113" y="511" name="MLLZPMHI"/>
      <point x="113" y="338" type="curve" smooth="yes" name="NAATNOMK"/>
      <point x="113" y="170" name="EUIEBEJW"/>
      <point x="216" y="50" name="UXZQUAFU"/>
      <point x="380" y="50" type="curve" smooth="yes" name="ULTRUYDN"/>
      <point x="434" y="50" name="RJTFLYZP"/>
      <point x="488" y="62" name="CONFMRBF"/>
      <point x="540" y="85" type="curve" name="FXBRPKQM"/>
      <point x="539" y="189" name="CUUVEUMC"/>
      <point x="538" y="249" name="WDVJWSHR"/>
      <point x="536" y="288" type="curve" smooth="yes" name="QRCQOBFX"/>
    </contour>
    <contour>
      <point x="471.0" y="127.0" type="move" name="BFJNLYWT"/>
      <point x="540.0" y="85.0" type="line" name="JBXGVBLG"/>
      <point x="608.0" y="40.0" type="line" name="PERFQIHH"/>
    </contour>
  </outline>
</glyph>
<glyph name="J" format="2">
  <advance width="467"/>
  <unicode hex="004A"/>
  <outline>
    <contour>
      <point x="223.0" y="680.0" type="move" name="ECUUNSVW"/>
      <point x="322.0" y="618.0" type="line" name="WZGBHWZC"/>
      <point x="420.0" y="680.0" type="line" name="SFLOLYUF"/>
    </contour>
    <contour>
      <point x="322" y="618" type="move" name="JKIZUAWY"/>
      <point x="322" y="234" type="line" smooth="yes" name="FNHOIXFX"/>
      <point x="322" y="124" name="AAQZQEMK"/>
      <point x="262" y="55" name="ZUJCFWQR"/>
      <point x="159" y="54" type="curve" smooth="yes" name="BBDNGLKL"/>
      <point x="135" y="54" name="AELJLBFA"/>
      <point x="109" y="59" name="HYIRNLZE"/>
      <point x="82" y="68" type="curve" smooth="yes" name="YFEAPKEK"/>
    </contour>
    <contour>
      <point x="20.0" y="15.0" type="move" name="LMCNVRTT"/>
      <point x="82.0" y="68.0" type="line" name="MBLKTCQA"/>
      <point x="20.0" y="186.0" type="line" name="IQVNJISR"/>
    </contour>
  </outline>
</glyph>
<glyph name="K" format="2">
  <advance width="658"/>
  <unicode hex="004B"/>
  <outline>
    <contour>
      <point x="156.0" y="618.0" type="move" name="WFONTSTZ"/>
      <point x="156" y="341" type="line" name="ZFSUMSLX"/>
      <point x="156.0" y="62.0" type="line" name="JJCMJVVW"/>
    </contour>
    <contour>
      <point x="496" y="618" type="move" name="GMQWCTVJ"/>
      <point x="290" y="398" type="line" smooth="yes" name="XIFLIGGI"/>
      <point x="246" y="351" name="BUKRPNTY"/>
      <point x="220" y="344" name="DUJSKWTM"/>
      <point x="156.0" y="341.0" type="curve" name="AXNWULVL"/>
      <point x="220" y="344" name="ZPPMBYME"/>
      <point x="248" y="336" name="PNYRPDGS"/>
      <point x="284" y="296" type="curve" smooth="yes" name="OEQVGRYW"/>
      <point x="496" y="62" type="line" name="WPYKNFWO"/>
    </contour>
    <contour>
      <point x="227.0" y="417.0" type="move" name="UEHSDBHQ"/>
      <point x="156.0" y="341.0" type="line" name="HLSLGYSW"/>
      <point x="227.0" y="261.0" type="line" name="ADWVDNAE"/>
    </contour>
    <contour>
      <point x="254.0" y="0.0" type="move" name="JRLMZRMB"/>
      <point x="156.0" y="62.0" type="line" name="VWUMAPUP"/>
      <point x="57" y="0" type="line" name="XJBUXPFQ"/>
    </contour>
    <contour>
      <point x="57.0" y="680.0" type="move" name="ECUUNSVW"/>
      <point x="156.0" y="618.0" type="line" name="WZGBHWZC"/>
      <point x="254.0" y="680.0" type="line" name="SFLOLYUF"/>
    </contour>
    <contour>
      <point x="668.0" y="0.0" type="move" name="PXIBMFLN"/>
      <point x="496.0" y="62.0" type="line" name="YWMEWBPF"/>
      <point x="435.0" y="0.0" type="line" name="RZJHOCJT"/>
    </contour>
    <contour>
      <point x="447.0" y="680.0" type="move" name="NUKKCNGE"/>
      <point x="496.0" y="618.0" type="line" name="POROMZGU"/>
      <point x="660.0" y="680.0" type="line" name="FQNYHCGX"/>
    </contour>
    <contour>
      <point x="156.0" y="341.0" type="move" name="YBROGVLX"/>
      <point x="212" y="343" name="GZKVZBAQ"/>
      <point x="268" y="346" name="VXRAAWAQ"/>
      <point x="324.0" y="348.0" type="curve" name="BOBHRBZT"/>
    </contour>
  </outline>
</glyph>
<glyph name="Q" format="2">
  <advance width="740"/>
  <unicode hex="0051"/>
  <outline>
    <contour>
      <point x="370" y="52" type="curve" smooth="yes" name="VMKQWNJD"/>
      <point x="220" y="52" name="DMSEBCOW"/>
      <point x="113" y="168" name="UCSBYSFO"/>
      <point x="113" y="341" type="curve" smooth="yes" name="RVRTRIUO"/>
      <point x="113" y="514" name="BNOCIASS"/>
      <point x="220" y="628" name="PJXPWODX"/>
      <point x="370" y="628" type="curve" smooth="yes" name="MRXDPXJL"/>
      <point x="520" y="628" name="OECYGCGW"/>
      <point x="627" y="513" name="TSJCLBTQ"/>
      <point x="627" y="341" type="curve" smooth="yes" name="VUMBXMUR"/>
      <point x="627" y="214" name="ZMYKKHYM"/>
      <point x="569" y="118" name="MZVSJBUK"/>
      <point x="479" y="75" type="curve" smooth="yes" name="DAHKINQW"/>
      <point x="447" y="60" name="KKKUCNZP"/>
      <point x="410" y="52" name="XBUWQOCH"/>
    </contour>
    <contour>
      <point x="777" y="-61" type="move" name="DWIHOPYO"/>
      <point x="674" y="-93" name="QTWVCDLR"/>
      <point x="562" y="-59" name="VHQHVXSU"/>
      <point x="479" y="75" type="curve" name="MDIHMODS"/>
    </contour>
    <contour>
      <point x="445.0" y="-4.0" type="move" name="YNRHKYIU"/>
      <point x="479.0" y="75.0" type="line" name="MRWUOZGO"/>
      <point x="580.0" y="61.0" type="line" name="ECXCYZTT"/>
    </contour>
  </outline>
</glyph>
<glyph name="V" format="2">
  <advance width="652"/>
  <unicode hex="0056"/>
  <outline>
    <contour>
      <point x="448.0" y="680.0" type="move" name="VYPIWFWC"/>
      <point x="535.0" y="610.0" type="line" name="HDOGQIGX"/>
      <point x="652.0" y="680.0" type="line" name="NZGOSKZA"/>
    </contour>
    <contour>
      <point x="0.0" y="680.0" type="move" name="CJOGMKGO"/>
      <point x="123.0" y="610.0" type="line" name="PSATSMVU"/>
      <point x="216.0" y="680.0" type="line" name="SYRAAAFE"/>
    </contour>
    <contour>
      <point x="123" y="610" type="move" name="HPIGSPPQ"/>
      <point x="217" y="331" type="line" name="ZUCTTFWP"/>
      <point x="244" y="256" name="DNSSNUVC"/>
      <point x="276" y="162" name="WLEUSDPC"/>
      <point x="297" y="90" type="curve" name="RMFRABWP"/>
      <point x="361" y="90" type="line" name="HOBEWAJM"/>
      <point x="382" y="162" name="NFPKCTSZ"/>
      <point x="414" y="256" name="SSUOLANM"/>
      <point x="441" y="331" type="curve" smooth="yes" name="XZVQMVQR"/>
      <point x="535" y="610" type="line" name="YLZJPCFD"/>
    </contour>
    <contour>
      <point x="251.0" y="0.0" type="move" name="GUAYFBHG"/>
      <point x="297.0" y="90.0" type="line" name="TLQLLYHG"/>
      <point x="332.0" y="209.0" type="line" name="XEQORZFB"/>
      <point x="361.0" y="90.0" type="line" name="TVJDFVVV"/>
      <point x="404.0" y="0.0" type="line" name="JKQTLTGN"/>
    </contour>
  </outline>
</glyph>
<glyph name="W" format="2">
  <advance width="934"/>
  <unicode hex="0057"/>
  <outline>
    <contour>
      <point x="354.0" y="0.0" type="move" name="JRLMZRMB"/>
      <point x="303.0" y="72.0" type="line" name="VWUMAPUP"/>
      <point x="242.0" y="0.0" type="line" name="XJBUXPFQ"/>
    </contour>
    <contour>
      <point x="15.0" y="680.0" type="move" name="ECUUNSVW"/>
      <point x="134.0" y="618.0" type="line" name="WZGBHWZC"/>
      <point x="234.0" y="680.0" type="line" name="SFLOLYUF"/>
    </contour>
    <contour>
      <point x="692.0" y="0.0" type="move" name="PXIBMFLN"/>
      <point x="635.0" y="72.0" type="line" name="YWMEWBPF"/>
      <point x="578.0" y="0.0" type="line" name="RZJHOCJT"/>
    </contour>
    <contour>
      <point x="403.0" y="680.0" type="move" name="MALAHQIX"/>
      <point x="472.0" y="608.0" type="line" name="IVKMMAED"/>
      <point x="547.0" y="680.0" type="line" name="PEMBKKZD"/>
    </contour>
    <contour>
      <point x="712.0" y="680.0" type="move" name="BSWQMPFI"/>
      <point x="807.0" y="618.0" type="line" name="SQTPMPKY"/>
      <point x="919.0" y="680.0" type="line" name="THLTPRIU"/>
    </contour>
    <contour>
      <point x="807" y="618" type="move" name="OQPGFQDZ"/>
      <point x="635" y="72" type="line" name="ZXMOTHXV"/>
      <point x="472" y="608" type="line" name="WWRQRYXQ"/>
      <point x="303" y="72" type="line" name="DMZYCJPA"/>
      <point x="134" y="618" type="line" name="EMBDNEKB"/>
    </contour>
    <contour>
      <point x="309.0" y="286.0" type="move" name="VDICUIWS"/>
      <point x="303.0" y="72.0" type="line" name="RNJIKSAF"/>
    </contour>
    <contour>
      <point x="638.0" y="288.0" type="move" name="KGFXZBRX"/>
      <point x="635.0" y="72.0" type="line" name="OTRMXUPS"/>
    </contour>
    <contour>
      <point x="472.0" y="608.0" type="move" name="FETCXOJX"/>
      <point x="467.0" y="390.0" type="line" name="HMSHVJGZ"/>
    </contour>
  </outline>
</glyph>
<glyph name="X" format="2">
  <advance width="657"/>
  <unicode hex="0058"/>
  <outline>
    <contour>
      <point x="508.0" y="62.0" type="move" name="DXQHOYPR"/>
      <point x="328" y="349" type="line" name="CSNHLRBV"/>
      <point x="162" y="618" type="line" name="UMBSBIFP"/>
    </contour>
    <contour>
      <point x="139.0" y="62.0" type="move" name="IJXQZHEO"/>
      <point x="328" y="349" type="line" name="YJCEVCKW"/>
      <point x="505.0" y="618.0" type="line" name="ZHYHNMTR"/>
    </contour>
    <contour>
      <point x="210.0" y="0.0" type="move" name="JRLMZRMB"/>
      <point x="139.0" y="62.0" type="line" name="VWUMAPUP"/>
      <point x="0.0" y="0.0" type="line" name="XJBUXPFQ"/>
    </contour>
    <contour>
      <point x="10.0" y="680.0" type="move" name="ECUUNSVW"/>
      <point x="162.0" y="618.0" type="line" name="WZGBHWZC"/>
      <point x="240.0" y="680.0" type="line" name="SFLOLYUF"/>
    </contour>
    <contour>
      <point x="657.0" y="0.0" type="move" name="PXIBMFLN"/>
      <point x="508.0" y="62.0" type="line" name="YWMEWBPF"/>
      <point x="427.0" y="0.0" type="line" name="RZJHOCJT"/>
    </contour>
    <contour>
      <point x="434.0" y="680.0" type="move" name="NUKKCNGE"/>
      <point x="505.0" y="618.0" type="line" name="POROMZGU"/>
      <point x="644.0" y="680.0" type="line" name="FQNYHCGX"/>
    </contour>
    <contour>
      <point x="250.0" y="346.0" type="move" name="YPFDIXJO"/>
    </contour>
    <contour>
      <point x="248.0" y="342.0" type="move" name="GJJJNNQJ"/>
      <point x="328.0" y="349.0" type="line" name="GYACVNXC"/>
      <point x="407.0" y="356.0" type="line" name="OODPQFJM"/>
    </contour>
    <contour>
      <point x="336.0" y="471.0" type="move" name="ZVZGLYAA"/>
      <point x="328.0" y="349.0" type="line" name="ITZMFEBQ"/>
      <point x="320.0" y="227.0" type="line" name="LOQXXOCZ"/>
    </contour>
  </outline>
</glyph>
<glyph name="bracketleft" format="2">
  <advance width="457"/>
  <unicode hex="005B"/>
  <outline>
    <contour>
      <point x="442" y="-135" type="move" name="LTDPDQAM"/>
      <point x="380" y="-84" name="VATVYTCJ"/>
      <point x="286" y="-51" name="LRBKMYRS"/>
      <point x="184" y="-45" type="curve" name="ZZCPLZDU"/>
      <point x="184" y="725" type="line" name="BEEVSGBQ"/>
      <point x="286" y="731" name="WFZHLRKG"/>
      <point x="380" y="764" name="IZQBVPSH"/>
      <point x="442" y="815" type="curve" name="YHNNHILT"/>
    </contour>
    <contour>
      <point x="85.0" y="795.0" type="move" name="FRPPGYVT"/>
      <point x="184.0" y="725.0" type="line" name="ZENXSLXH"/>
      <point x="259.0" y="663.0" type="line" name="RBFACIQK"/>
    </contour>
    <contour>
      <point x="259.0" y="17.0" type="move" name="CUISBYWO"/>
      <point x="184.0" y="-45.0" type="line" name="KXHORHYR"/>
      <point x="85.0" y="-115.0" type="line" name="RHHJSEOH"/>
    </contour>
  </outline>
</glyph>
<glyph name="bracketright" format="2">
  <advance width="457"/>
  <unicode hex="005D"/>
  <outline>
    <contour>
      <point x="15.0" y="816.0" type="move" name="LTDPDQAM"/>
      <point x="77.0" y="765.0" name="VATVYTCJ"/>
      <point x="171.0" y="732.0" name="LRBKMYRS"/>
      <point x="273.0" y="726.0" type="curve" name="ZZCPLZDU"/>
      <point x="273.0" y="-44.0" type="line" name="BEEVSGBQ"/>
      <point x="171.0" y="-50.0" name="WFZHLRKG"/>
      <point x="77.0" y="-83.0" name="IZQBVPSH"/>
      <point x="15.0" y="-134.0" type="curve" name="YHNNHILT"/>
    </contour>
    <contour>
      <point x="372.0" y="-114.0" type="move" name="FRPPGYVT"/>
      <point x="273.0" y="-44.0" type="line" name="ZENXSLXH"/>
      <point x="198.0" y="18.0" type="line" name="RBFACIQK"/>
    </contour>
    <contour>
      <point x="198.0" y="664.0" type="move" name="CUISBYWO"/>
      <point x="273.0" y="726.0" type="line" name="KXHORHYR"/>
      <point x="372.0" y="796.0" type="line" name="RHHJSEOH"/>
    </contour>
  </outline>
</glyph>
<glyph name="asciicircum" format="2">
  <advance width="560"/>
  <unicode hex="005E"/>
  <outline>
    <contour>
      <point x="141.0" y="325.0" type="move" name="WPRHTLYN"/>
      <point x="279" y="568" type="line" name="HMDQAAUJ"/>
      <point x="417.0" y="325.0" type="line" name="YYZHRKBN"/>
    </contour>
    <contour>
      <point x="179.0" y="263.0" type="move" name="RGJNIOLT"/>
      <point x="141.0" y="325.0" type="line" name="GJJLBOFA"/>
      <point x="33.0" y="263.0" type="line" name="IARBCIXR"/>
    </contour>
    <contour>
      <point x="525.0" y="263.0" type="move" name="ODLSHKCX"/>
      <point x="417.0" y="325.0" type="line" name="MCQBZECN"/>
      <point x="379.0" y="263.0" type="line" name="QFEFGBXH"/>
    </contour>
    <contour>
      <point x="279.0" y="694.0" type="move" name="HRUESERG"/>
      <point x="279.0" y="568.0" type="line" name="UHQTMGXT"/>
      <point x="279.0" y="442.0" type="line" name="EAJGMOVQ"/>
    </contour>
  </outline>
</glyph>
<glyph name="braceleft" format="2">
  <advance width="461"/>
  <unicode hex="007B"/>
  <outline>
    <contour>
      <point x="369" y="757" type="move" smooth="yes" name="DJWMGFXN"/>
      <point x="248" y="784" name="TRVGJZSQ"/>
      <point x="176" y="742" name="LSEABRHQ"/>
      <point x="176" y="658" type="curve" smooth="yes" name="GIAPYVPI"/>
      <point x="176" y="587" name="VGXUKJAK"/>
      <point x="229" y="493" name="CJTOAGGL"/>
      <point x="229" y="436" type="curve" smooth="yes" name="ZPXWSWLF"/>
      <point x="229" y="373" name="BPPBHNXE"/>
      <point x="197" y="341" name="MWAARZRG"/>
      <point x="112" y="341" type="curve" name="FKUKSUBR"/>
      <point x="197" y="341" name="WJCUXHPQ"/>
      <point x="229" y="310" name="EUMVGZQS"/>
      <point x="229" y="246" type="curve" smooth="yes" name="YCKPVSZP"/>
      <point x="229" y="190" name="DIDAQYPI"/>
      <point x="176" y="96" name="ZMHLUCAP"/>
      <point x="176" y="26" type="curve" smooth="yes" name="HPRANMSD"/>
      <point x="176" y="-60" name="BBNERILY"/>
      <point x="249" y="-101" name="TKFUVZXK"/>
      <point x="369" y="-74" type="curve" smooth="yes" name="DGFGOSVF"/>
    </contour>
    <contour>
      <point x="112.0" y="341.0" type="move" name="CADPUYQY"/>
      <point x="224.0" y="341.0" type="line" name="EHZCMMXC"/>
    </contour>
    <contour>
      <point x="50.0" y="399.0" type="move" name="EFIENYAF"/>
      <point x="112.0" y="341.0" type="line" name="CDBOBYKV"/>
      <point x="50.0" y="284.0" type="line" name="ZWIUHRCJ"/>
    </contour>
    <contour>
      <point x="431.0" y="812.0" type="move" name="QAKWYUOC"/>
      <point x="369.0" y="757.0" type="line" name="JURMZHFW"/>
      <point x="431.0" y="666.0" type="line" name="ITNKSUYE"/>
    </contour>
    <contour>
      <point x="431.0" y="17.0" type="move" name="IFKSYXVK"/>
      <point x="369.0" y="-74.0" type="line" name="QGPAFGTV"/>
      <point x="431.0" y="-129.0" type="line" name="OCQPCHXD"/>
    </contour>
  </outline>
</glyph>
<glyph name="bar" format="2">
  <advance width="385"/>
  <unicode hex="007C"/>
  <outline>
    <contour>
      <point x="192.0" y="688.0" type="move" name="RDLEELQE"/>
      <point x="192.0" y="-13.0" type="line" name="RRPNDCBP"/>
    </contour>
    <contour>
      <point x="262.0" y="-75.0" type="move" name="JRLMZRMB"/>
      <point x="192.0" y="-13.0" type="line" name="VWUMAPUP"/>
      <point x="123.0" y="-75.0" type="line" name="XJBUXPFQ"/>
    </contour>
    <contour>
      <point x="123.0" y="750.0" type="move" name="ECUUNSVW"/>
      <point x="192.0" y="688.0" type="line" name="WZGBHWZC"/>
      <point x="262.0" y="750.0" type="line" name="SFLOLYUF"/>
    </contour>
  </outline>
</glyph>
<glyph name="braceright" format="2">
  <advance width="461"/>
  <unicode hex="007D"/>
  <outline>
    <contour>
      <point x="92" y="-72" type="move" smooth="yes" name="DJWMGFXN"/>
      <point x="213" y="-99" name="TRVGJZSQ"/>
      <point x="285" y="-57" name="LSEABRHQ"/>
      <point x="285" y="27" type="curve" smooth="yes" name="GIAPYVPI"/>
      <point x="285" y="98" name="VGXUKJAK"/>
      <point x="232" y="192" name="CJTOAGGL"/>
      <point x="232" y="249" type="curve" smooth="yes" name="ZPXWSWLF"/>
      <point x="232" y="312" name="BPPBHNXE"/>
      <point x="264" y="344" name="MWAARZRG"/>
      <point x="349" y="344" type="curve" name="FKUKSUBR"/>
      <point x="264" y="344" name="WJCUXHPQ"/>
      <point x="232" y="375" name="EUMVGZQS"/>
      <point x="232" y="439" type="curve" smooth="yes" name="YCKPVSZP"/>
      <point x="232" y="495" name="DIDAQYPI"/>
      <point x="285" y="589" name="ZMHLUCAP"/>
      <point x="285" y="659" type="curve" smooth="yes" name="HPRANMSD"/>
      <point x="285" y="745" name="BBNERILY"/>
      <point x="212" y="786" name="TKFUVZXK"/>
      <point x="92" y="759" type="curve" smooth="yes" name="DGFGOSVF"/>
    </contour>
    <contour>
      <point x="349" y="344" type="move" name="CADPUYQY"/>
      <point x="237" y="344" type="line" name="EHZCMMXC"/>
    </contour>
    <contour>
      <point x="411" y="286" type="move" name="EFIENYAF"/>
      <point x="349" y="344" type="line" name="CDBOBYKV"/>
      <point x="411" y="401" type="line" name="ZWIUHRCJ"/>
    </contour>
    <contour>
      <point x="30" y="-127" type="move" name="QAKWYUOC"/>
      <point x="92" y="-72" type="line" name="JURMZHFW"/>
      <point x="30" y="19" type="line" name="ITNKSUYE"/>
    </contour>
    <contour>
      <point x="30" y="668" type="move" name="IFKSYXVK"/>
      <point x="92" y="759" type="line" name="QGPAFGTV"/>
      <point x="30" y="814" type="line" name="OCQPCHXD"/>
    </contour>
  </outline>
</glyph>
<glyph name="asciitilde" format="2">
  <advance width="639"/>
  <unicode hex="007E"/>
  <outline>
    <contour>
      <point x="109" y="233" type="move" smooth="yes" name="TLTSJOTM"/>
      <point x="117" y="320" name="OJTSAVXT"/>
      <point x="159" y="364" name="KTANMABY"/>
      <point x="219" y="364" type="curve" smooth="yes" name="NEIAVBSY"/>
      <point x="265" y="364" name="VNJXXOJL"/>
      <point x="293" y="331" name="UTIDJNYS"/>
      <point x="321" y="299" type="curve" smooth="yes" name="ZVIXQJQI"/>
      <point x="348" y="268" name="TCJDQAFV"/>
      <point x="375" y="238" name="KWHPLUBX"/>
      <point x="420" y="238" type="curve" smooth="yes" name="PCMDZVFY"/>
      <point x="479" y="238" name="EMHIOWXS"/>
      <point x="521" y="283" name="FOZEKGDU"/>
      <point x="530" y="370" type="curve" smooth="yes" name="BCKDKKGS"/>
    </contour>
    <contour>
      <point x="160.0" y="171.0" type="move" name="KNDZZCSU"/>
      <point x="109.0" y="233.0" type="line" name="SXMFXSCR"/>
      <point x="55.0" y="171.0" type="line" name="KRQLUEJB"/>
    </contour>
    <contour>
      <point x="479.0" y="432.0" type="move" name="UFHZFGWW"/>
      <point x="530.0" y="370.0" type="line" name="ZIPKRGSW"/>
      <point x="584.0" y="432.0" type="line" name="KITPWMNF"/>
    </contour>
  </outline>
</glyph>
<glyph name="exclamdown" format="2">
  <advance width="289"/>
  <unicode hex="00A1"/>
  <outline>
    <contour>
      <point x="225" y="519" type="move" name="KFGIGMOD"/>
      <point x="145" y="599" type="line" name="PHPTNCMS"/>
      <point x="64" y="680" type="line" name="JYLHONKL"/>
    </contour>
    <contour>
      <point x="225" y="680" type="move" name="GMKLNRTI"/>
      <point x="145" y="599" type="line" name="BGIAKFXI"/>
      <point x="64" y="519" type="line" name="DUAAOXAS"/>
    </contour>
    <contour>
      <point x="145.0" y="377.0" type="move" name="INZNHOIJ"/>
      <point x="145.0" y="62.0" type="line" name="IRHJFHBZ"/>
    </contour>
    <contour>
      <point x="91.0" y="423.0" type="move" name="JRLMZRMB"/>
      <point x="145.0" y="377.0" type="line" name="VWUMAPUP"/>
      <point x="198.0" y="423.0" type="line" name="XJBUXPFQ"/>
    </contour>
    <contour>
      <point x="238.0" y="0.0" type="move" name="ECUUNSVW"/>
      <point x="145.0" y="62.0" type="line" name="WZGBHWZC"/>
      <point x="51.0" y="0.0" type="line" name="SFLOLYUF"/>
    </contour>
  </outline>
</glyph>
<glyph name="cent" format="2">
  <advance width="469"/>
  <unicode hex="00A2"/>
  <outline>
    <contour>
      <point x="270.0" y="623.0" type="move" name="JLQQFFKX"/>
      <point x="263" y="509" type="line" name="MAXJSTDD"/>
    </contour>
    <contour>
      <point x="357" y="499" type="move" smooth="yes" name="DMZCSUCV"/>
      <point x="326" y="509" name="RQGHHKKN"/>
      <point x="291" y="513" name="FPRSRGRU"/>
      <point x="263" y="509" type="curve" smooth="yes" name="OPLNSFXL"/>
      <point x="165" y="498" name="DRIKBISI"/>
      <point x="101" y="423" name="DWKIBBPJ"/>
      <point x="101" y="313" type="curve" smooth="yes" name="ROTECUDT"/>
      <point x="101" y="211" name="TOZTAIGD"/>
      <point x="156" y="140" name="BTPKUHSD"/>
      <point x="242" y="121" type="curve" smooth="yes" name="BFTCEIQH"/>
      <point x="278" y="113" name="CVRFWPDK"/>
      <point x="320" y="115" name="LHQCDVEV"/>
      <point x="357" y="127" type="curve" smooth="yes" name="SGCLNCNH"/>
    </contour>
    <contour>
      <point x="242" y="121" type="move" name="QTJQWKXX"/>
      <point x="235.0" y="7.0" type="line" name="AZBKRTJU"/>
    </contour>
    <contour>
      <point x="419.0" y="542.0" type="move" name="ZVSPBBMH"/>
      <point x="357.0" y="499.0" type="line" name="PJYICBXU"/>
      <point x="419.0" y="400.0" type="line" name="JTRIQKLW"/>
    </contour>
    <contour>
      <point x="419.0" y="226.0" type="move" name="IQVNJISR"/>
      <point x="357.0" y="127.0" type="line" name="MBLKTCQA"/>
      <point x="419.0" y="84.0" type="line" name="LMCNVRTT"/>
    </contour>
    <contour>
      <point x="211.0" y="680.0" type="move" name="LTNDHFZZ"/>
      <point x="270.0" y="623.0" type="line" name="IVPTZQNP"/>
      <point x="336.0" y="680.0" type="line" name="RANKSWBF"/>
    </contour>
    <contour>
      <point x="203.0" y="556.0" type="move" name="FZRHHKQG"/>
      <point x="263.0" y="509.0" type="line" name="ZLXNQPJA"/>
      <point x="329.0" y="565.0" type="line" name="LLUOVUDW"/>
    </contour>
    <contour>
      <point x="294.0" y="-50.0" type="move" name="JDTNRFAZ"/>
      <point x="235.0" y="7.0" type="line" name="LSVEQRGV"/>
      <point x="169.0" y="-50.0" type="line" name="MJPHEMNU"/>
    </contour>
    <contour>
      <point x="301.0" y="59.0" type="move" name="QAWHCKLM"/>
      <point x="242.0" y="121.0" type="line" name="OIORXXHN"/>
      <point x="177.0" y="80.0" type="line" name="CKQDSTVN"/>
    </contour>
  </outline>
</glyph>
<glyph name="yen" format="2">
  <advance width="633"/>
  <unicode hex="00A5"/>
  <outline>
    <contour>
      <point x="318" y="62" type="move" name="ZQICQUVH"/>
      <point x="318.0" y="290.0" type="line" name="SDZABPHW"/>
      <point x="318" y="427" type="line" name="CBAEFGZT"/>
    </contour>
    <contour>
      <point x="141" y="618" type="move" name="LCVLISYN"/>
      <point x="303" y="318" type="line" name="YCLOVNXI"/>
      <point x="318" y="290" type="line" name="TBZMFCBX"/>
      <point x="333" y="318" type="line" name="MTFYLPSG"/>
      <point x="495" y="618" type="line" name="EEUMVHZY"/>
    </contour>
    <contour>
      <point x="505.0" y="158.0" type="move" name="QHXOZSHF"/>
      <point x="130.0" y="158.0" type="line" name="QOGAILGT"/>
    </contour>
    <contour>
      <point x="416.0" y="0.0" type="move" name="JRLMZRMB"/>
      <point x="318.0" y="62.0" type="line" name="VWUMAPUP"/>
      <point x="219.0" y="0.0" type="line" name="XJBUXPFQ"/>
    </contour>
    <contour>
      <point x="10.0" y="680.0" type="move" name="ECUUNSVW"/>
      <point x="141.0" y="618.0" type="line" name="WZGBHWZC"/>
      <point x="223.0" y="680.0" type="line" name="SFLOLYUF"/>
    </contour>
    <contour>
      <point x="417.0" y="680.0" type="move" name="NUKKCNGE"/>
      <point x="495.0" y="618.0" type="line" name="POROMZGU"/>
      <point x="623.0" y="680.0" type="line" name="FQNYHCGX"/>
    </contour>
    <contour>
      <point x="500" y="630" type="move" name="BVOZKWAI"/>
    </contour>
    <contour>
      <point x="557.0" y="371.0" type="move" name="SZJYRJUG"/>
      <point x="505.0" y="318.0" type="line" name="IUGKDUAB"/>
      <point x="557.0" y="266.0" type="line" name="HQFMAYTQ"/>
    </contour>
    <contour>
      <point x="557.0" y="211.0" type="move" name="JXUGLWJU"/>
      <point x="505.0" y="158.0" type="line" name="PDNQWYUK"/>
      <point x="557.0" y="106.0" type="line" name="YNCTEUNX"/>
    </contour>
    <contour>
      <point x="78.0" y="266.0" type="move" name="PQJZOEWC"/>
      <point x="130.0" y="318.0" type="line" name="FHKCUIKB"/>
      <point x="78.0" y="371.0" type="line" name="YFHHXFPQ"/>
    </contour>
    <contour>
      <point x="78.0" y="106.0" type="move" name="DWBHGAKW"/>
      <point x="130.0" y="158.0" type="line" name="FFFIPKWP"/>
      <point x="78.0" y="211.0" type="line" name="NRQPJBMA"/>
    </contour>
    <contour>
      <point x="303.0" y="318.0" type="move" name="TEKTNMRJ"/>
      <point x="130" y="318" type="line" name="FIFUANTO"/>
    </contour>
    <contour>
      <point x="505" y="318" type="move" name="IHWOVVPY"/>
      <point x="333.0" y="318.0" type="line" name="REGCAGEO"/>
    </contour>
    <contour>
      <point x="201.0" y="371.0" type="move" name="SXFUORQM"/>
      <point x="303.0" y="318.0" type="line" name="DRXWPLDC"/>
      <point x="246.0" y="266.0" type="line" name="SZQDGAMC"/>
    </contour>
    <contour>
      <point x="389.0" y="266.0" type="move" name="HIRRIURM"/>
      <point x="333.0" y="318.0" type="line" name="YPEGRYFW"/>
      <point x="433.0" y="371.0" type="line" name="KXKXKHSN"/>
    </contour>
    <contour>
      <point x="245.0" y="211.0" type="move" name="JPWSCQHH"/>
      <point x="318" y="158" type="line" name="IOXDEKMI"/>
      <point x="394.0" y="106.0" type="line" name="ZVUKINLQ"/>
    </contour>
    <contour>
      <point x="241.0" y="106.0" type="move" name="JQXYCVMK"/>
      <point x="318.0" y="158.0" type="line" name="FRDSZZOY"/>
      <point x="390.0" y="211.0" type="line" name="OBZRWTBP"/>
    </contour>
  </outline>
</glyph>
<glyph name="brokenbar" format="2">
  <advance width="385"/>
  <unicode hex="00A6"/>
  <outline>
    <contour>
      <point x="192.0" y="688.0" type="move" name="GDRFKIJG"/>
      <point x="192.0" y="432.0" type="line" name="HPWYLEUJ"/>
    </contour>
    <contour>
      <point x="192.0" y="-13.0" type="move" name="YNQIORWU"/>
      <point x="192.0" y="243.0" type="line" name="ETUZCWBQ"/>
    </contour>
    <contour>
      <point x="262.0" y="-75.0" type="move" name="CXHJXCQF"/>
      <point x="192.0" y="-13.0" type="line" name="RNCAZWZE"/>
      <point x="123.0" y="-75.0" type="line" name="YXMQNBGV"/>
    </contour>
    <contour>
      <point x="123.0" y="750.0" type="move" name="NADGSXUC"/>
      <point x="192.0" y="688.0" type="line" name="ZILYASZQ"/>
      <point x="262.0" y="750.0" type="line" name="ASVFWQKM"/>
    </contour>
    <contour>
      <point x="262.0" y="370.0" type="move" name="WATZXZTZ"/>
      <point x="192.0" y="432.0" type="line" name="WKYLTBTS"/>
      <point x="123.0" y="370.0" type="line" name="LUGIBLTS"/>
    </contour>
    <contour>
      <point x="123.0" y="305.0" type="move" name="UUQXXCZF"/>
      <point x="192.0" y="243.0" type="line" name="ABSAKPZE"/>
      <point x="262.0" y="305.0" type="line" name="NWXLBWCU"/>
    </contour>
  </outline>
</glyph>
<glyph name="section" format="2">
  <advance width="505"/>
  <unicode hex="00A7"/>
  <outline>
    <contour>
      <point x="367" y="619" type="move" smooth="yes" name="DWDGATGX"/>
      <point x="340" y="627" name="QUGMWTZD"/>
      <point x="314" y="631" name="JQEPBIVA"/>
      <point x="289" y="631" type="curve" smooth="yes" name="ZFOERVCL"/>
      <point x="199" y="631" name="DZYGOVBL"/>
      <point x="138" y="590" name="ZRTNCQFQ"/>
      <point x="138" y="530" type="curve" smooth="yes" name="FAONMNLH"/>
      <point x="138" y="471"/>
      <point x="198" y="449"/>
      <point x="260" y="424" type="curve" smooth="yes"/>
      <point x="328" y="398"/>
      <point x="398" y="371"/>
      <point x="398" y="295" type="curve" name="UQAOBDXT"/>
    </contour>
    <contour>
      <point x="398" y="295" type="curve" smooth="yes" name="MZYIXBEU"/>
      <point x="398" y="230" name="YVXNNGPZ"/>
      <point x="336" y="178" name="XRCENYZQ"/>
      <point x="244" y="178" type="curve" smooth="yes" name="NLTFDEKK"/>
      <point x="158" y="178" name="RKEXDFHT"/>
      <point x="106" y="226" name="OBVTPCEV"/>
      <point x="106" y="286" type="curve" smooth="yes" name="VNYPNUKL"/>
      <point x="106" y="350" name="ZOCFNIWP"/>
      <point x="168" y="402" name="TNRYQKDG"/>
      <point x="260" y="402" type="curve" smooth="yes" name="PFMDYZGG"/>
      <point x="346" y="402" name="JOQLOGGB"/>
      <point x="398" y="356" name="WYQSRERL"/>
    </contour>
    <contour>
      <point x="106" y="286" type="move" name="AYINGACV"/>
      <point x="106" y="209"/>
      <point x="177" y="178"/>
      <point x="246" y="152" type="curve" smooth="yes"/>
      <point x="313" y="126"/>
      <point x="378" y="104"/>
      <point x="378" y="48" type="curve" smooth="yes" name="OIDVCMCV"/>
      <point x="378" y="-10" name="VYHEAWOD"/>
      <point x="314" y="-52" name="NZBCAJBH"/>
      <point x="219" y="-52" type="curve" smooth="yes" name="AAEXVWDW"/>
      <point x="191" y="-52" name="ZJSTEFKA"/>
      <point x="160" y="-47" name="ULKLPBBN"/>
      <point x="129" y="-38" type="curve" smooth="yes" name="WLNXLFMQ"/>
    </contour>
    <contour>
      <point x="429.0" y="670.0" type="move" name="XYGWLLJZ"/>
      <point x="367.0" y="619.0" type="line" name="KMXAMPOA"/>
      <point x="429.0" y="522.0" type="line" name="NRFSNWVX"/>
    </contour>
    <contour>
      <point x="67.0" y="-89.0" type="move" name="SFQYRYIF"/>
      <point x="129.0" y="-38.0" type="line" name="CJMHXZGC"/>
      <point x="67.0" y="60.0" type="line" name="NKUKGJGC"/>
    </contour>
    <contour>
      <point x="106" y="286" type="move" name="ROXOWHIL"/>
      <point x="106" y="158" name="NFXQCIWS"/>
      <point x="321.0" y="139.0" name="RALWDUYB"/>
      <point x="385" y="174" type="curve" name="WIYTHOGE"/>
    </contour>
    <contour>
      <point x="398.0" y="295.0" type="move" name="PLFOUIAB"/>
      <point x="398.0" y="422" name="DFMUNOPB"/>
      <point x="172.0" y="440.0" name="ILYBOXFS"/>
      <point x="118.0" y="405.0" type="curve" name="CPZNMFWO"/>
    </contour>
  </outline>
</glyph>
<glyph name="logicalnot" format="2">
  <advance width="490"/>
  <unicode hex="00AC"/>
  <outline>
    <contour>
      <point x="102.0" y="382.0" type="move" name="VBWEQSEX"/>
      <point x="386.0" y="382.0" type="line" name="JZLKNGGF"/>
      <point x="386.0" y="236.0" type="line" name="AKWJIHNM"/>
    </contour>
    <contour>
      <point x="40.0" y="319.0" type="move" name="FNNHCQUS"/>
      <point x="102.0" y="382.0" type="line" name="QICFKYLA"/>
      <point x="40.0" y="446.0" type="line" name="IEQBPFZH"/>
    </contour>
    <contour>
      <point x="450.0" y="174.0" type="move" name="ZOVJRSXG"/>
      <point x="386.0" y="236.0" type="line" name="AQYKFLRN"/>
      <point x="321.0" y="174.0" type="line" name="ZCKQMTVC"/>
    </contour>
    <contour>
      <point x="321.0" y="319.0" type="move" name="PIQGGNJE"/>
      <point x="386.0" y="382.0" type="line" name="JNZCSVDK"/>
      <point x="450.0" y="446.0" type="line" name="TZCSMWYP"/>
    </contour>
  </outline>
</glyph>
<glyph name="degree" format="2">
  <advance width="532"/>
  <unicode hex="00B0"/>
  <outline>
    <contour>
      <point x="265" y="304" type="curve" smooth="yes" name="GIZNRRFD"/>
      <point x="172" y="304" name="NEWYMGXI"/>
      <point x="109" y="372" name="URPHJNPW"/>
      <point x="109" y="471" type="curve" smooth="yes" name="KBKQDJMK"/>
      <point x="109" y="570" name="ODRGVBIZ"/>
      <point x="172" y="638" name="RXBDHVJK"/>
      <point x="265" y="638" type="curve" smooth="yes" name="FMDCPFWT"/>
      <point x="358" y="638" name="LIZNKMWB"/>
      <point x="424" y="570" name="QRNGOSAS"/>
      <point x="424" y="471" type="curve" smooth="yes" name="EEUXVVZE"/>
      <point x="424" y="372" name="DJFXFKWD"/>
      <point x="358" y="304" name="UOYWXUED"/>
    </contour>
  </outline>
</glyph>
<glyph name="plusminus" format="2">
  <advance width="540"/>
  <unicode hex="00B1"/>
  <outline>
    <contour>
      <point x="438.0" y="379.0" type="move" name="OQRWOUJS"/>
      <point x="102.0" y="379.0" type="line" name="VUFNIHFT"/>
    </contour>
    <contour>
      <point x="268.0" y="521.0" type="move" name="ATSZANNA"/>
      <point x="268.0" y="235.0" type="line" name="JSTANXYW"/>
    </contour>
    <contour>
      <point x="40.0" y="316.0" type="move" name="GZNFOEBR"/>
      <point x="102.0" y="379.0" type="line" name="JHNJOZWE"/>
      <point x="40.0" y="443.0" type="line" name="YLNRZGTJ"/>
    </contour>
    <contour>
      <point x="500.0" y="443.0" type="move" name="AECUGLVT"/>
      <point x="438.0" y="379.0" type="line" name="YRZOKHYI"/>
      <point x="500.0" y="316.0" type="line" name="GRSAXPSS"/>
    </contour>
    <contour>
      <point x="203.0" y="583.0" type="move" name="FCLRCFFV"/>
      <point x="268.0" y="521.0" type="line" name="BGHSJBWT"/>
      <point x="334.0" y="583.0" type="line" name="WTGFQFIL"/>
    </contour>
    <contour>
      <point x="334.0" y="173.0" type="move" name="ZOVJRSXG"/>
      <point x="268.0" y="235.0" type="line" name="AQYKFLRN"/>
      <point x="203.0" y="173.0" type="line" name="ZCKQMTVC"/>
    </contour>
    <contour>
      <point x="203.0" y="316.0" type="move" name="DMHYJPVP"/>
      <point x="268.0" y="379.0" type="line" name="QFKQAYBN"/>
      <point x="334.0" y="443.0" type="line" name="JKWWFGTX"/>
    </contour>
    <contour>
      <point x="203.0" y="443.0" type="move" name="DCBTXKUI"/>
      <point x="268.0" y="379.0" type="line" name="ZYXTPDCI"/>
      <point x="334.0" y="316.0" type="line" name="NKTYMGTN"/>
    </contour>
    <contour>
      <point x="438.0" y="63.0" type="move" name="BZIHYWJJ"/>
      <point x="102.0" y="63.0" type="line" name="VHIIIGVA"/>
    </contour>
    <contour>
      <point x="40.0" y="0.0" type="move" name="NZENEVQQ"/>
      <point x="102.0" y="63.0" type="line" name="DCPFQLNG"/>
      <point x="40.0" y="127.0" type="line" name="HOIKFISJ"/>
    </contour>
    <contour>
      <point x="500.0" y="127.0" type="move" name="AISOODDA"/>
      <point x="438.0" y="63.0" type="line" name="LMQBFNEB"/>
      <point x="500.0" y="0.0" type="line" name="CSXAANLU"/>
    </contour>
  </outline>
</glyph>
<glyph name="periodcentered" format="2">
  <advance width="291"/>
  <unicode hex="00B7"/>
  <outline>
    <contour>
      <point x="65" y="410" type="move" name="JHZPYSGX"/>
      <point x="145" y="330" type="line" name="SPZNVLRZ"/>
      <point x="226" y="249" type="line" name="EWEGOKCW"/>
    </contour>
    <contour>
      <point x="65" y="249" type="move" name="PHNGTFYJ"/>
      <point x="145" y="330" type="line" name="QXRCYFJA"/>
      <point x="226" y="410" type="line" name="NQZWNOPH"/>
    </contour>
  </outline>
</glyph>
<glyph name="cedilla" format="2">
  <advance width="416"/>
  <unicode hex="00B8"/>
  <anchor x="0" y="0" name="bottom"/>
  <anchor x="208" y="0" name="center"/>
  <outline>
    <contour>
      <point x="180" y="40" type="move" name="KUAJFBNR"/>
      <point x="175" y="-82" name="LHNMOKXI"/>
      <point x="288" y="-49" name="RDITOQIT"/>
      <point x="288" y="-136" type="curve" smooth="yes" name="NYXGSXJE"/>
      <point x="288" y="-202" name="BTZWJVHD"/>
      <point x="221" y="-230" name="TMPTKFWG"/>
      <point x="122" y="-204" type="curve" smooth="yes" name="KTXVQYFV"/>
    </contour>
    <contour>
      <point x="60.0" y="-245.0" type="move" name="YKSBPDZL"/>
      <point x="122.0" y="-204.0" type="line" name="SJSBMLGJ"/>
      <point x="60.0" y="-119.0" type="line" name="EVCDMOCG"/>
    </contour>
  </outline>
</glyph>
<glyph name="ordmasculine" format="2">
  <advance width="492"/>
  <unicode hex="00BA"/>
  <outline>
    <contour>
      <point x="246" y="332" type="curve" smooth="yes" name="LEFIRBRP"/>
      <point x="164" y="332" name="TYIYTREH"/>
      <point x="106" y="398" name="IGYOUACN"/>
      <point x="106" y="488" type="curve" smooth="yes" name="CSHHJBXN"/>
      <point x="106" y="579" name="JSPJHATX"/>
      <point x="164" y="644" name="HTLPNASZ"/>
      <point x="246" y="644" type="curve" smooth="yes" name="AOHJZJJB"/>
      <point x="328" y="644" name="MYGAXYUW"/>
      <point x="386" y="579" name="HCAGVFGB"/>
      <point x="386" y="488" type="curve" smooth="yes" name="CTQNKMKG"/>
      <point x="386" y="398" name="XRDQSCDY"/>
      <point x="328" y="332" name="WNKXIRHY"/>
    </contour>
    <contour>
      <point x="374.0" y="168.0" type="move" name="AHBASXNG"/>
      <point x="118.0" y="168.0" type="line" name="FWGGRKND"/>
    </contour>
    <contour>
      <point x="66.0" y="113.0" type="move" name="SIAMBFMI"/>
      <point x="118.0" y="168.0" type="line" name="AWJEQRGB"/>
      <point x="66.0" y="222.0" type="line" name="OIRWJVVO"/>
    </contour>
    <contour>
      <point x="426.0" y="222.0" type="move" name="EODMASAK"/>
      <point x="374.0" y="168.0" type="line" name="JABROEUQ"/>
      <point x="426.0" y="113.0" type="line" name="XPRWKGXC"/>
    </contour>
  </outline>
</glyph>
<glyph name="guillemetright" format="2">
  <advance width="752"/>
  <unicode hex="00BB"/>
  <outline>
    <contour>
      <point x="360.0" y="26.0" type="move" name="USFRIIDQ"/>
      <point x="438.0" y="138.0" name="MXJMYGOB"/>
      <point x="523.0" y="226.0" name="PIDYREUH"/>
      <point x="622.0" y="303.0" type="curve" name="XFVDEHYM"/>
      <point x="523.0" y="380.0" name="OPGHCQQZ"/>
      <point x="438.0" y="468.0" name="WWPBCIID"/>
      <point x="360.0" y="580.0" type="curve" name="RNPUBRYE"/>
    </contour>
    <contour>
      <point x="497.0" y="303.0" type="move" name="BEYUIEYU"/>
      <point x="622.0" y="303.0" type="line" name="ZHQKIGWZ"/>
      <point x="747.0" y="303.0" type="line" name="EEAYBLZO"/>
    </contour>
    <contour>
      <point x="40.0" y="26.0" type="move" name="JJHWDRJY"/>
      <point x="118.0" y="138.0" name="UMFDQUJM"/>
      <point x="203.0" y="226.0" name="NBJXTDTL"/>
      <point x="302.0" y="303.0" type="curve" name="FYUVCZHA"/>
      <point x="203.0" y="380.0" name="TCYUDNQO"/>
      <point x="118.0" y="468.0" name="TZHVNBBU"/>
      <point x="40.0" y="580.0" type="curve" name="JEOFKJKQ"/>
    </contour>
    <contour>
      <point x="177.0" y="303.0" type="move" name="HOZCWOLS"/>
      <point x="302.0" y="303.0" type="line" name="OYFPIRYA"/>
      <point x="427.0" y="303.0" type="line" name="OTQWZOHN"/>
    </contour>
  </outline>
</glyph>
<glyph name="onequarter" format="2">
  <advance width="899"/>
  <unicode hex="00BC"/>
  <outline>
    <contour>
      <point x="90" y="608" type="move" smooth="yes" name="LGAWLIOF"/>
      <point x="120" y="616" name="FPELBJBQ"/>
      <point x="156" y="624" name="RTEOSXII"/>
      <point x="197" y="631" type="curve" name="KSZPWNFU"/>
      <point x="195" y="603" name="MVMHRIMX"/>
      <point x="194" y="575" name="WZORDRQK"/>
      <point x="194" y="484" type="curve" smooth="yes" name="ZVAXMOYV"/>
      <point x="194" y="323" type="line" name="ECEMLJVK"/>
    </contour>
    <contour>
      <point x="272" y="271" type="move" name="DJDMUEMF"/>
      <point x="194" y="323" type="line" name="GLBBUTPM"/>
      <point x="108" y="271" type="line" name="NDKJLYVL"/>
    </contour>
    <contour>
      <point x="40" y="529" type="move" name="YKSBPDZL"/>
      <point x="90" y="608" type="line" name="SJSBMLGJ"/>
      <point x="40" y="653" type="line" name="EVCDMOCG"/>
    </contour>
    <contour>
      <point x="132" y="567" type="move" name="FBAXOHBA"/>
      <point x="197" y="631" type="line" name="PARNAAAU"/>
      <point x="265" y="694" type="line" name="LGHUHPJI"/>
    </contour>
    <contour>
      <point x="599" y="628" type="move" name="CVGMOIPZ"/>
      <point x="249" y="52" type="line" name="HAMZUUTH"/>
    </contour>
    <contour>
      <point x="281" y="0" type="move" name="JRLMZRMB"/>
      <point x="249" y="52" type="line" name="VWUMAPUP"/>
      <point x="155" y="0" type="line" name="XJBUXPFQ"/>
    </contour>
    <contour>
      <point x="567" y="680" type="move" name="ECUUNSVW"/>
      <point x="599" y="628" type="line" name="WZGBHWZC"/>
      <point x="693" y="680" type="line" name="SFLOLYUF"/>
    </contour>
    <contour>
      <point x="752" y="52" type="move" name="YLKTYDSE"/>
      <point x="752" y="361" type="line" name="JOYMLHOM"/>
      <point x="669" y="361" type="line" name="PMHREQCV"/>
      <point x="556" y="139" type="line" name="IASGRGUF"/>
      <point x="816" y="139" type="line" name="KRMNCZPK"/>
    </contour>
    <contour>
      <point x="480" y="95" type="move" name="ELENJWXW"/>
      <point x="556" y="139" type="line" name="SGLMYNKZ"/>
      <point x="632" y="184" type="line" name="VZYBCCWC"/>
    </contour>
    <contour>
      <point x="649" y="409" type="move" name="TPRUROBU"/>
      <point x="669" y="361" type="line" name="EPKIYCWR"/>
      <point x="692" y="312" type="line" name="VWJUODPM"/>
      <point x="752" y="361" type="line" name="YHUDWJXH"/>
      <point x="828" y="409" type="line" name="CMGKMTGJ"/>
    </contour>
    <contour>
      <point x="866" y="198" type="move" name="NPVWZBFT"/>
      <point x="816" y="139" type="line" name="IPBDLLWX"/>
      <point x="866" y="82" type="line" name="QPLJJQKO"/>
    </contour>
    <contour>
      <point x="809" y="186" type="move" name="OLKLIABD"/>
      <point x="752" y="139" type="line" name="EQBZVSVQ"/>
      <point x="692" y="95" type="line" name="DCXLRJTX"/>
    </contour>
    <contour>
      <point x="694" y="184" type="move" name="TZLWLDNI"/>
      <point x="752" y="139" type="line" name="FBUZPITT"/>
      <point x="811" y="93" type="line" name="YAFLRDXM"/>
    </contour>
    <contour>
      <point x="828" y="0" type="move" name="ZSZOHKAZ"/>
      <point x="752" y="52" type="line" name="GQLWRUOI"/>
      <point x="675" y="0" type="line" name="WCRMRPED"/>
    </contour>
  </outline>
</glyph>
<glyph name="questiondown" format="2">
  <advance width="523"/>
  <unicode hex="00BF"/>
  <outline>
    <contour>
      <point x="371" y="519" type="move" name="KFGIGMOD"/>
      <point x="291" y="599" type="line" name="PHPTNCMS"/>
      <point x="210" y="680" type="line" name="JYLHONKL"/>
    </contour>
    <contour>
      <point x="371" y="680" type="move" name="GMKLNRTI"/>
      <point x="291" y="599" type="line" name="BGIAKFXI"/>
      <point x="210" y="519" type="line" name="DUAAOXAS"/>
    </contour>
    <contour>
      <point x="237.0" y="423.0" type="move" name="JRLMZRMB"/>
      <point x="283.0" y="377.0" type="line" name="VWUMAPUP"/>
      <point x="344.0" y="423.0" type="line" name="XJBUXPFQ"/>
    </contour>
    <contour>
      <point x="416" y="74" type="move" smooth="yes" name="CZGRHAEP"/>
      <point x="375" y="60" name="OWEGBLNJ"/>
      <point x="333" y="52" name="DUKJKRKS"/>
      <point x="293" y="52" type="curve" smooth="yes" name="DBTMXWNH"/>
      <point x="183" y="52" name="MKGMAZJP"/>
      <point x="111" y="96" name="SKGHRGHM"/>
      <point x="111" y="174" type="curve" smooth="yes" name="GIGXNIGK"/>
      <point x="111" y="278" name="XPKIAYVY"/>
      <point x="249" y="298" name="GYNLDTND"/>
      <point x="283" y="377" type="curve" smooth="yes" name="PRYMSVEV"/>
    </contour>
    <contour>
      <point x="478.0" y="186.0" type="move" name="DMOCMXSX"/>
      <point x="416.0" y="74.0" type="line" name="BUWWFJIJ"/>
      <point x="478.0" y="15.0" type="line" name="IIYOJRYX"/>
    </contour>
  </outline>
</glyph>
<glyph name="Ccedilla" format="2">
  <advance width="610"/>
  <unicode hex="00C7"/>
  <outline>
    <contour>
      <point x="488" y="607" type="move" smooth="yes" name="DPEXBIPW"/>
      <point x="453" y="620" name="EQSYGSUQ"/>
      <point x="409" y="628" name="UEAMWQAD"/>
      <point x="374" y="628" type="curve" smooth="yes" name="KQUUYGGH"/>
      <point x="215" y="628" name="ZZZCHOTG"/>
      <point x="113" y="512" name="YHMSRLBE"/>
      <point x="113" y="339" type="curve" smooth="yes" name="URTIXGAW"/>
      <point x="113" y="185" name="XFRJNJXJ"/>
      <point x="194" y="78" name="RRBRKBXV"/>
      <point x="324" y="56" type="curve" smooth="yes" name="PCWKLQJX"/>
      <point x="371" y="47" name="TCCYPWOU"/>
      <point x="440" y="53" name="XOXXAJYZ"/>
      <point x="488" y="71" type="curve" smooth="yes" name="ZRADGHXR"/>
    </contour>
    <contour>
      <point x="550" y="658" type="move" name="ZVSPBBMH"/>
      <point x="488" y="607" type="line" name="PJYICBXU"/>
      <point x="550" y="490" type="line" name="JTRIQKLW"/>
    </contour>
    <contour>
      <point x="550" y="190" type="move" name="IQVNJISR"/>
      <point x="488" y="71" type="line" name="MBLKTCQA"/>
      <point x="550" y="22" type="line" name="LMCNVRTT"/>
    </contour>
    <contour>
      <point x="324" y="56" type="move" smooth="yes" name="FUYOWHTT"/>
      <point x="300" y="-99" name="AXUTQSHL"/>
      <point x="429" y="-55" name="VUDPKNZX"/>
      <point x="429" y="-148" type="curve" smooth="yes" name="KJQYQZMW"/>
      <point x="429" y="-214" name="ZAPXATSX"/>
      <point x="362" y="-242" name="PBOSIJKJ"/>
      <point x="263" y="-216" type="curve" name="QOTIUSFZ"/>
    </contour>
    <contour>
      <point x="201" y="-257" type="move" name="YKSBPDZL"/>
      <point x="263" y="-216" type="line" name="SJSBMLGJ"/>
      <point x="201" y="-131" type="line" name="EVCDMOCG"/>
    </contour>
    <contour>
      <point x="264.0" y="4.0" type="move" name="LYDWDSSQ"/>
      <point x="324.0" y="56.0" type="line" name="XWSBPOTG"/>
      <point x="388.0" y="-12.0" type="line" name="HDSFATQN"/>
    </contour>
  </outline>
</glyph>
<glyph name="multiply" format="2">
  <advance width="535"/>
  <unicode hex="00D7"/>
  <outline>
    <contour>
      <point x="394.0" y="182.0" type="move" name="RGQAYIJB"/>
      <point x="268" y="308" type="line" name="GCMDALRS"/>
      <point x="142.0" y="434.0" type="line" name="VZWCMBBH"/>
    </contour>
    <contour>
      <point x="394.0" y="434.0" type="move" name="RMPXMFNX"/>
      <point x="268.0" y="308.0" type="line" name="UTUUOZWL"/>
      <point x="142.0" y="182.0" type="line" name="WDHAQPRG"/>
    </contour>
    <contour>
      <point x="143.0" y="88.0" type="move" name="URSDWKDL"/>
      <point x="142.0" y="182.0" type="line" name="SEVNMIQY"/>
      <point x="48.0" y="183.0" type="line" name="GFBFJXDR"/>
    </contour>
    <contour>
      <point x="393.0" y="528.0" type="move" name="HZPAHONW"/>
      <point x="394.0" y="434.0" type="line" name="RWDFZFUV"/>
      <point x="488.0" y="433.0" type="line" name="FGKAKSKN"/>
    </contour>
    <contour>
      <point x="488.0" y="183.0" type="move" name="GHYQXSKR"/>
      <point x="394.0" y="182.0" type="line" name="HNSTPTUD"/>
      <point x="393.0" y="88.0" type="line" name="JYHCMETE"/>
    </contour>
    <contour>
      <point x="48.0" y="433.0" type="move" name="NRGODJPP"/>
      <point x="142.0" y="434.0" type="line" name="HOCPINVZ"/>
      <point x="143.0" y="528.0" type="line" name="VZLJZETQ"/>
    </contour>
    <contour>
      <point x="268.0" y="403.0" type="move" name="FTBNRHLR"/>
      <point x="268.0" y="308.0" type="line" name="HVXYUARI"/>
      <point x="268.0" y="213.0" type="line" name="VSYDONSI"/>
    </contour>
    <contour>
      <point x="173.0" y="308.0" type="move" name="TGBCIJLX"/>
      <point x="268.0" y="308.0" type="line" name="WJXNHLET"/>
      <point x="363.0" y="308.0" type="line" name="USRJQQQL"/>
    </contour>
  </outline>
</glyph>
<glyph name="Oslash" format="2">
  <advance width="740"/>
  <unicode hex="00D8"/>
  <outline>
    <contour>
      <point x="370" y="52" type="curve" smooth="yes" name="TGYHFSCK"/>
      <point x="318" y="52" name="SEZLLGYE"/>
      <point x="271" y="66" name="TMPJEAUC"/>
      <point x="232" y="91" type="curve" smooth="yes" name="KSUFXNKF"/>
      <point x="158" y="139" name="BLYSQWLB"/>
      <point x="113" y="228" name="MZVSLHMM"/>
      <point x="113" y="341" type="curve" smooth="yes" name="WVMTCVTA"/>
      <point x="113" y="514" name="VZIGQVHF"/>
      <point x="218" y="628" name="BHLIENHV"/>
      <point x="370" y="628" type="curve" smooth="yes" name="BXQKAXJF"/>
      <point x="421" y="628" name="PMDJVMNO"/>
      <point x="466" y="615" name="XUIWPBWR"/>
      <point x="504" y="591" type="curve" smooth="yes" name="LSDKPXPF"/>
      <point x="580" y="544" name="GUBMJWJG"/>
      <point x="627" y="455" name="ASEWXZON"/>
      <point x="627" y="341" type="curve" smooth="yes" name="XEUAKIWH"/>
      <point x="627" y="168" name="OSSWTQDK"/>
      <point x="521" y="52" name="RFBMARMK"/>
    </contour>
    <contour>
      <point x="180" y="-5" type="move" name="WHLACUNZ"/>
      <point x="232" y="91" type="line" name="YQZFSKSG"/>
      <point x="504" y="591" type="line" name="VONLPORN"/>
      <point x="556" y="686" type="line" name="RLLFMTJR"/>
    </contour>
    <contour>
      <point x="203.0" y="-91.0" type="move" name="ZOYTXCWR"/>
      <point x="180.0" y="-5.0" type="line" name="WFRSHBQB"/>
      <point x="95.0" y="-33.0" type="line" name="FYLMKNFD"/>
    </contour>
    <contour>
      <point x="533.0" y="772.0" type="move" name="WZJPLCXJ"/>
      <point x="556.0" y="686.0" type="line" name="IDWRPXOX"/>
      <point x="641.0" y="714.0" type="line" name="VKQBTAMB"/>
    </contour>
    <contour>
      <point x="256.0" y="6.0" type="move" name="ZWFLGFGG"/>
      <point x="232.0" y="91.0" type="line" name="BPKQMMYH"/>
      <point x="222.0" y="200.0" type="line" name="YBBUFEZP"/>
    </contour>
    <contour>
      <point x="150.0" y="68.0" type="move" name="UZMPJDNM"/>
      <point x="232.0" y="91.0" type="line" name="PMMUKVTQ"/>
      <point x="319.0" y="122.0" type="line" name="QUCTEWND"/>
    </contour>
    <contour>
      <point x="480.0" y="675.0" type="move" name="TAUWPHVD"/>
      <point x="504.0" y="591.0" type="line" name="ZXCUAMGB"/>
      <point x="516.0" y="484.0" type="line" name="YAUPKZRK"/>
    </contour>
    <contour>
      <point x="587.0" y="615.0" type="move" name="NJCPADGN"/>
      <point x="504.0" y="591.0" type="line" name="HJMBMYIX"/>
      <point x="417.0" y="559.0" type="line" name="WIPIWBOL"/>
    </contour>
  </outline>
</glyph>
<glyph name="OE" format="2">
  <advance width="929"/>
  <unicode hex="0152"/>
  <outline>
    <contour>
      <point x="767.0" y="350.0" type="move" name="GRLQYXQK"/>
      <point x="536" y="350" type="line" name="GHHEYZBI"/>
    </contour>
    <contour>
      <point x="856.0" y="680.0" type="move" name="IIYOJRYX"/>
      <point x="794.0" y="611.0" type="line" name="BUWWFJIJ"/>
      <point x="856.0" y="524.0" type="line" name="DMOCMXSX"/>
    </contour>
    <contour>
      <point x="874.0" y="166.0" type="move" name="NFCLXEKZ"/>
      <point x="792.0" y="69.0" type="line" name="DGWJLFZR"/>
      <point x="854.0" y="0.0" type="line" name="RDJQSJBO"/>
    </contour>
    <contour>
      <point x="829.0" y="432.0" type="move" name="UBWSCXEJ"/>
      <point x="767.0" y="350.0" type="line" name="OGPDTMUS"/>
      <point x="829.0" y="269.0" type="line" name="JMWBMAFS"/>
    </contour>
    <contour>
      <point x="607.0" y="410.0" type="move" name="HAWFMGNR"/>
      <point x="536.0" y="350.0" type="line" name="ROFWTZTV"/>
      <point x="607.0" y="290.0" type="line" name="GOKVVXDN"/>
    </contour>
    <contour>
      <point x="792" y="69" type="move" smooth="yes" name="UJZLLQZS"/>
      <point x="721" y="63" name="EOKOLEIF"/>
      <point x="607.0" y="62.0" name="YNYLDGDV"/>
      <point x="536.0" y="62.0" type="curve" smooth="yes" name="WKVSVQUV"/>
      <point x="385.0" y="62.0" type="line" smooth="yes" name="VAASNHYO"/>
      <point x="224" y="62" name="TNRFHSZN"/>
      <point x="113.0" y="171.0" name="ZWJKCABV"/>
      <point x="113.0" y="339.0" type="curve" smooth="yes" name="VGDCTNWC"/>
      <point x="113.0" y="508.0" name="ALDKOYCL"/>
      <point x="224" y="618" name="XXAOFSRB"/>
      <point x="385.0" y="618.0" type="curve" smooth="yes" name="KIJSYAEP"/>
      <point x="536.0" y="618.0" type="line" smooth="yes" name="AQFNPWKD"/>
      <point x="605.0" y="618.0" name="WKFZOTBZ"/>
      <point x="723" y="616" name="BLDZFCPU"/>
      <point x="794" y="611" type="curve" smooth="yes" name="MLKVJVRM"/>
    </contour>
    <contour>
      <point x="536" y="618" type="move" name="HIMEGYYX"/>
      <point x="536" y="62" type="line" name="VNZLALUE"/>
    </contour>
    <contour>
      <point x="460.0" y="555.0" type="move" name="CEADBRGW"/>
      <point x="536.0" y="618.0" type="line" name="XDPAMDLQ"/>
      <point x="611.0" y="555.0" type="line" name="RMECZRHS"/>
    </contour>
    <contour>
      <point x="611.0" y="125.0" type="move" name="RHDCZJZO"/>
      <point x="536.0" y="62.0" type="line" name="LETDADSP"/>
      <point x="460.0" y="125.0" type="line" name="XPRXIAJM"/>
    </contour>
  </outline>
</glyph>
<glyph name="circumflex" format="2">
  <advance width="562"/>
  <unicode hex="02C6"/>
  <anchor x="0" y="517" name="top"/>
  <anchor x="280" y="517" name="center"/>
  <outline>
    <contour>
      <point x="202.0" y="646.0" type="move" name="HGWQJEXT"/>
      <point x="281" y="729" type="line" name="OKCAJDUE"/>
      <point x="360.0" y="646.0" type="line" name="PWIYTAVU"/>
    </contour>
    <contour>
      <point x="219.0" y="584.0" type="move" name="SAWZNQBB"/>
      <point x="202.0" y="646.0" type="line" name="JBOBMLZL"/>
      <point x="70.0" y="584.0" type="line" name="RGGYSVGZ"/>
    </contour>
    <contour>
      <point x="492.0" y="584.0" type="move" name="EKLXRYOY"/>
      <point x="360.0" y="646.0" type="line" name="TSMRCCWM"/>
      <point x="343.0" y="584.0" type="line" name="XETUSRFI"/>
    </contour>
    <contour>
      <point x="282.0" y="810.0" type="move" name="RJIJMKGM"/>
      <point x="281.0" y="729.0" type="line" name="PBSLPXJM"/>
      <point x="281.0" y="648.0" type="line" name="XFASUVZR"/>
    </contour>
  </outline>
</glyph>
<glyph name="ring" format="2">
  <advance width="420"/>
  <unicode hex="02DA"/>
  <anchor x="0" y="517" name="top"/>
  <anchor x="210" y="517" name="center"/>
  <outline>
    <contour>
      <point x="209" y="604" type="curve" smooth="yes" name="EKPZITFF"/>
      <point x="146" y="604" name="DEHMSOER"/>
      <point x="104" y="648" name="AMFWMNJF"/>
      <point x="104" y="710" type="curve" smooth="yes" name="ECKCGIIP"/>
      <point x="104" y="772" name="VOMSSANZ"/>
      <point x="146" y="815" name="YWSPZCHW"/>
      <point x="209" y="815" type="curve" smooth="yes" name="PFEIDUTL"/>
      <point x="272" y="815" name="KIQPXMDL"/>
      <point x="316" y="772" name="KEJBBFXD"/>
      <point x="316" y="710" type="curve" smooth="yes" name="ARXPPRDQ"/>
      <point x="316" y="648" name="SLUXJUNA"/>
      <point x="272" y="604" name="FDOOVKYA"/>
    </contour>
  </outline>
</glyph>
<glyph name="tilde" format="2">
  <advance width="565"/>
  <unicode hex="02DC"/>
  <anchor x="0" y="517" name="top"/>
  <anchor x="282" y="517" name="center"/>
  <outline>
    <contour>
      <point x="444" y="732" type="move" smooth="yes" name="BXUOASAU"/>
      <point x="440" y="667" name="HHPDXGRT"/>
      <point x="410" y="638" name="AVGBDRUH"/>
      <point x="365" y="638" type="curve" smooth="yes" name="XMVGPXJX"/>
      <point x="302" y="638" name="KHKDWNGK"/>
      <point x="263" y="724" name="SYMMFPZX"/>
      <point x="200" y="724" type="curve" smooth="yes" name="BBHSMBKK"/>
      <point x="156" y="724" name="DEFWBUKF"/>
      <point x="126" y="696" name="ZBQNSRWS"/>
      <point x="121" y="630" type="curve" smooth="yes" name="EAISJZVZ"/>
    </contour>
    <contour>
      <point x="165.0" y="578.0" type="move" name="QCPOLWYD"/>
      <point x="121.0" y="630.0" type="line" name="FJNMUWTQ"/>
      <point x="80.0" y="578.0" type="line" name="GPKWJZET"/>
    </contour>
    <contour>
      <point x="400.0" y="784.0" type="move" name="VJIZZDNK"/>
      <point x="444.0" y="732.0" type="line" name="CTDXBEAF"/>
      <point x="485.0" y="784.0" type="line" name="DVRFTJRK"/>
    </contour>
  </outline>
</glyph>
<glyph name="quoteleft" format="2">
  <advance width="274"/>
  <unicode hex="2018"/>
  <outline>
    <contour>
      <point x="249" y="690" type="move" smooth="yes" name="JUNWJFMJ"/>
      <point x="162" y="623" name="WEWTMJJV"/>
      <point x="127" y="541" name="AEXINPXG"/>
      <point x="126" y="461" type="curve" name="AZXRXXIH"/>
    </contour>
    <contour>
      <point x="214.0" y="399.0" type="move" name="XJBUXPFQ"/>
      <point x="126.0" y="461.0" type="line" name="VWUMAPUP"/>
      <point x="47.0" y="399.0" type="line" name="JRLMZRMB"/>
    </contour>
  </outline>
</glyph>
<glyph name="quotesinglbase" format="2">
  <advance width="274"/>
  <unicode hex="201A"/>
  <outline>
    <contour>
      <point x="25" y="-130" type="move" smooth="yes" name="JUNWJFMJ"/>
      <point x="112" y="-63" name="WEWTMJJV"/>
      <point x="147" y="19" name="AEXINPXG"/>
      <point x="148" y="99" type="curve" name="AZXRXXIH"/>
    </contour>
    <contour>
      <point x="60.0" y="161.0" type="move" name="XJBUXPFQ"/>
      <point x="148.0" y="99.0" type="line" name="VWUMAPUP"/>
      <point x="227.0" y="161.0" type="line" name="JRLMZRMB"/>
    </contour>
  </outline>
</glyph>
<glyph name="quotedblright" format="2">
  <advance width="499"/>
  <unicode hex="201D"/>
  <outline>
    <contour>
      <point x="25" y="389" type="move" smooth="yes" name="PKGKJTZQ"/>
      <point x="112" y="456" name="ENBYZXIW"/>
      <point x="147" y="538" name="PNHNDITW"/>
      <point x="148" y="618" type="curve" name="OUFBGIPB"/>
    </contour>
    <contour>
      <point x="60.0" y="680.0" type="move" name="VNNQPSJO"/>
      <point x="148.0" y="618.0" type="line" name="YZIHCHDC"/>
      <point x="227.0" y="680.0" type="line" name="HFLFJNTE"/>
    </contour>
    <contour>
      <point x="250" y="389" type="move" smooth="yes" name="MIOJNHZW"/>
      <point x="337" y="456" name="QKIPTQRU"/>
      <point x="372" y="538" name="RLIAUSUB"/>
      <point x="373" y="618" type="curve" name="CQAKDPFV"/>
    </contour>
    <contour>
      <point x="285.0" y="680.0" type="move" name="UOOJZWRB"/>
      <point x="373.0" y="618.0" type="line" name="FCJEZBVI"/>
      <point x="452.0" y="680.0" type="line" name="WFAJZJHU"/>
    </contour>
  </outline>
</glyph>
<glyph name="quotedblbase" format="2">
  <advance width="499"/>
  <unicode hex="201E"/>
  <outline>
    <contour>
      <point x="25" y="-130" type="move" smooth="yes" name="LHJPAEFD"/>
      <point x="112" y="-63" name="EDCYVDPN"/>
      <point x="147" y="19" name="BJUSKHWM"/>
      <point x="148" y="99" type="curve" name="MNKNOFKY"/>
    </contour>
    <contour>
      <point x="60.0" y="161.0" type="move" name="CPEDHGBM"/>
      <point x="148.0" y="99.0" type="line" name="AOTGPWBQ"/>
      <point x="227.0" y="161.0" type="line" name="UDENNTSO"/>
    </contour>
    <contour>
      <point x="250" y="-130" type="move" smooth="yes" name="WENIEAVH"/>
      <point x="337" y="-63" name="LXUDBMSJ"/>
      <point x="372" y="19" name="LWOXHYFJ"/>
      <point x="373" y="99" type="curve" name="HBHIAPDL"/>
    </contour>
    <contour>
      <point x="285.0" y="161.0" type="move" name="UXICUCWG"/>
      <point x="373.0" y="99.0" type="line" name="YPLDSTMS"/>
      <point x="452.0" y="161.0" type="line" name="RPLGOSNC"/>
    </contour>
  </outline>
</glyph>
<glyph name="ellipsis" format="2">
  <advance width="813"/>
  <unicode hex="2026"/>
  <outline>
    <contour>
      <point x="55" y="161" type="move" name="BBBXEDUL"/>
      <point x="135" y="81" type="line" name="DPUXYHJE"/>
      <point x="216" y="0" type="line" name="RISSROSI"/>
    </contour>
    <contour>
      <point x="55" y="0" type="move" name="BYCLNGGY"/>
      <point x="135" y="81" type="line" name="XOSRRQMU"/>
      <point x="216" y="161" type="line" name="NDPDAFAR"/>
    </contour>
    <contour>
      <point x="326" y="161" type="move" name="MSZPDYNI"/>
      <point x="406" y="81" type="line" name="XVAXXKZC"/>
      <point x="487" y="0" type="line" name="LZYBUYIU"/>
    </contour>
    <contour>
      <point x="326" y="0" type="move" name="AZXZJVXP"/>
      <point x="406" y="81" type="line" name="CUXUKLEB"/>
      <point x="487" y="161" type="line" name="HRYGKXOT"/>
    </contour>
    <contour>
      <point x="597" y="161" type="move" name="YBHODLZL"/>
      <point x="677" y="81" type="line" name="PZCZPQZX"/>
      <point x="758" y="0" type="line" name="GOFCZZTI"/>
    </contour>
    <contour>
      <point x="597" y="0" type="move" name="WLXIRPCO"/>
      <point x="677" y="81" type="line" name="SJELAMWR"/>
      <point x="758" y="161" type="line" name="NJPEUUOG"/>
    </contour>
  </outline>
</glyph>
<glyph name="guilsinglright" format="2">
  <advance width="432"/>
  <unicode hex="203A"/>
  <outline>
    <contour>
      <point x="40.0" y="26.0" type="move" name="WVEEZEAC"/>
      <point x="118.0" y="138.0" name="ZGMYRLVO"/>
      <point x="203.0" y="226.0" name="UOVYCGRF"/>
      <point x="302.0" y="303.0" type="curve" name="BEQNTCWP"/>
      <point x="203.0" y="380.0" name="PZJJBRMM"/>
      <point x="118.0" y="468.0" name="KYUQMTZR"/>
      <point x="40.0" y="580.0" type="curve" name="SXXAXEGP"/>
    </contour>
    <contour>
      <point x="177.0" y="303.0" type="move" name="KBJQFCWR"/>
      <point x="302.0" y="303.0" type="line" name="IRBJYMVL"/>
      <point x="427.0" y="303.0" type="line" name="WCGYFGGX"/>
    </contour>
  </outline>
</glyph>
<glyph name="fraction" format="2">
  <advance width="568"/>
  <unicode hex="2044"/>
  <outline>
    <contour>
      <point x="459.0" y="628.0" type="move" name="CVGMOIPZ"/>
      <point x="109.0" y="52.0" type="line" name="HAMZUUTH"/>
    </contour>
    <contour>
      <point x="141.0" y="0.0" type="move" name="JRLMZRMB"/>
      <point x="109.0" y="52.0" type="line" name="VWUMAPUP"/>
      <point x="15.0" y="0.0" type="line" name="XJBUXPFQ"/>
    </contour>
    <contour>
      <point x="427.0" y="680.0" type="move" name="ECUUNSVW"/>
      <point x="459.0" y="628.0" type="line" name="WZGBHWZC"/>
      <point x="553.0" y="680.0" type="line" name="SFLOLYUF"/>
    </contour>
  </outline>
</glyph>
<glyph name="four.superior" format="2">
  <advance width="446"/>
  <unicode hex="2074"/>
  <outline>
    <contour>
      <point x="292.0" y="323.0" type="move" name="YLKTYDSE"/>
      <point x="292" y="632" type="line" name="JOYMLHOM"/>
      <point x="209" y="632" type="line" name="PMHREQCV"/>
      <point x="96" y="410" type="line" name="IASGRGUF"/>
      <point x="356.0" y="410.0" type="line" name="KRMNCZPK"/>
    </contour>
    <contour>
      <point x="20.0" y="366.0" type="move" name="ELENJWXW"/>
      <point x="96.0" y="410.0" type="line" name="SGLMYNKZ"/>
      <point x="172.0" y="455.0" type="line" name="VZYBCCWC"/>
    </contour>
    <contour>
      <point x="189.0" y="680.0" type="move" name="TPRUROBU"/>
      <point x="209.0" y="632.0" type="line" name="EPKIYCWR"/>
      <point x="232.0" y="583.0" type="line" name="VWJUODPM"/>
      <point x="292.0" y="632.0" type="line" name="YHUDWJXH"/>
      <point x="368.0" y="680.0" type="line" name="CMGKMTGJ"/>
    </contour>
    <contour>
      <point x="406.0" y="469.0" type="move" name="NPVWZBFT"/>
      <point x="356.0" y="410.0" type="line" name="IPBDLLWX"/>
      <point x="406.0" y="353.0" type="line" name="QPLJJQKO"/>
    </contour>
    <contour>
      <point x="349.0" y="457.0" type="move" name="OLKLIABD"/>
      <point x="292.0" y="410.0" type="line" name="EQBZVSVQ"/>
      <point x="232.0" y="366.0" type="line" name="DCXLRJTX"/>
    </contour>
    <contour>
      <point x="234.0" y="455.0" type="move" name="TZLWLDNI"/>
      <point x="292.0" y="410.0" type="line" name="FBUZPITT"/>
      <point x="351.0" y="364.0" type="line" name="YAFLRDXM"/>
    </contour>
    <contour>
      <point x="368.0" y="271.0" type="move" name="HMCBDXWQ"/>
      <point x="292.0" y="323.0" type="line" name="NKQGKGLT"/>
      <point x="215.0" y="271.0" type="line" name="AHVUZJUJ"/>
    </contour>
  </outline>
</glyph>
<glyph name="minus" format="2">
  <advance width="490"/>
  <unicode hex="2212"/>
  <outline>
    <contour>
      <point x="388.0" y="310.0" type="move" name="DDZPKHOF"/>
      <point x="102.0" y="310.0" type="line" name="QPZAAIDE"/>
    </contour>
    <contour>
      <point x="40.0" y="247.0" type="move" name="QXYCFKZZ"/>
      <point x="102.0" y="310.0" type="line" name="VKBDRAMS"/>
      <point x="40.0" y="374.0" type="line" name="ANSDBWON"/>
    </contour>
    <contour>
      <point x="450.0" y="374.0" type="move" name="AORGRKMK"/>
      <point x="388.0" y="310.0" type="line" name="KMRKYDKC"/>
      <point x="450.0" y="247.0" type="line" name="GHOKTHSE"/>
    </contour>
  </outline>
</glyph>
<glyph name="divisionslash" format="2">
  <advance width="518"/>
  <unicode hex="2215"/>
  <outline>
    <contour>
      <point x="428.0" y="668.0" type="move" name="HUBJDAIT"/>
      <point x="94.0" y="-8.0" type="line" name="FPKWWAJP"/>
    </contour>
    <contour>
      <point x="137.0" y="-70.0" type="move" name="JRLMZRMB"/>
      <point x="94.0" y="-8.0" type="line" name="VWUMAPUP"/>
      <point x="-11.0" y="-70.0" type="line" name="XJBUXPFQ"/>
    </contour>
    <contour>
      <point x="385.0" y="730.0" type="move" name="ECUUNSVW"/>
      <point x="428.0" y="668.0" type="line" name="WZGBHWZC"/>
      <point x="533.0" y="730.0" type="line" name="SFLOLYUF"/>
    </contour>
  </outline>
</glyph>
<glyph name="Q.alt" format="2">
  <advance width="740"/>
  <outline>
    <contour>
      <point x="370" y="52" type="curve" smooth="yes" name="XOWKSGUS"/>
      <point x="220" y="52" name="MWWYWDYJ"/>
      <point x="113" y="168" name="OSDAHQJJ"/>
      <point x="113" y="341" type="curve" smooth="yes" name="EEWUGPTV"/>
      <point x="113" y="514" name="RBUTRZLS"/>
      <point x="220" y="628" name="SRUNSOQV"/>
      <point x="370" y="628" type="curve" smooth="yes" name="RHIRBCLJ"/>
      <point x="520" y="628" name="WWNOWEFJ"/>
      <point x="627" y="513" name="OQRZLECD"/>
      <point x="627" y="341" type="curve" smooth="yes" name="JSYPJWOE"/>
      <point x="627" y="222" name="IKMDBJNL"/>
      <point x="576" y="130" name="GYFMOFSZ"/>
      <point x="495" y="84" type="curve" smooth="yes" name="XYIMMSYF"/>
      <point x="459" y="63" name="HXPYRSSV"/>
      <point x="417" y="52" name="QWGRZGPK"/>
    </contour>
    <contour>
      <point x="544" y="-6" type="move" name="ZZSXKAUG"/>
      <point x="495" y="84" type="line" name="JESOLXBL"/>
      <point x="423" y="217" type="line" name="CZKYGUTO"/>
    </contour>
    <contour>
      <point x="655.0" y="-64.0" type="move" name="DEWGDVNW"/>
      <point x="544.0" y="-6.0" type="line" name="VPRYTBZR"/>
      <point x="495.0" y="-64.0" type="line" name="FVFCZSPB"/>
    </contour>
    <contour>
      <point x="312.0" y="275.0" type="move" name="ZKSYOZAR"/>
      <point x="423.0" y="217.0" type="line" name="BMRJBTDE"/>
      <point x="472.0" y="275.0" type="line" name="NKEFZSDF"/>
    </contour>
    <contour>
      <point x="508.0" y="185.0" type="move" name="JGIPCAIC"/>
      <point x="495.0" y="84.0" type="line" name="TOCPVMLD"/>
      <point x="471.0" y="3.0" type="line" name="NRSAKXZD"/>
    </contour>
    <contour>
      <point x="406.0" y="118.0" type="move" name="ZHBPQEER"/>
      <point x="495.0" y="84.0" type="line" name="KYYITUMF"/>
      <point x="580.0" y="61.0" type="line" name="XMNJZNJD"/>
    </contour>
  </outline>
</glyph>
<glyph name="one.alt" format="2">
  <advance width="311"/>
  <outline>
    <contour>
      <point x="157.0" y="618.0" type="move" name="JKIZUAWY"/>
      <point x="157.0" y="62.0" type="line" name="IKYWWOLM"/>
    </contour>
    <contour>
      <point x="255.0" y="0.0" type="move" name="JRLMZRMB"/>
      <point x="157.0" y="62.0" type="line" name="VWUMAPUP"/>
      <point x="58.0" y="0.0" type="line" name="XJBUXPFQ"/>
    </contour>
    <contour>
      <point x="58.0" y="680.0" type="move" name="ECUUNSVW"/>
      <point x="157.0" y="618.0" type="line" name="WZGBHWZC"/>
      <point x="255.0" y="680.0" type="line" name="SFLOLYUF"/>
    </contour>
  </outline>
</glyph>
